<?xml version="1.0" encoding="UTF-8"?>
<svg width="19px" height="19px" viewBox="0 0 19 19" version="1.1" xmlns="http://www.w3.org/2000/svg" xmlns:xlink="http://www.w3.org/1999/xlink">
    <!-- Generator: sketchtool 41 (35326) - http://www.bohemiancoding.com/sketch -->
    <title>274BB386-06A0-4830-9B2F-6183954B27D6</title>
    <desc>Created with sketchtool.</desc>
    <defs></defs>
    <g id="Symbols" stroke="none" stroke-width="1" fill="none" fill-rule="evenodd">
        <g id="Add" transform="translate(-5.000000, -5.000000)" fill="#00B494">
            <g id="Close">
                <path d="M13.5,13.5 L5.99477117,13.5 C5.45092539,13.5 5,13.9477153 5,14.5 C5,15.0561352 5.44537422,15.5 5.99477117,15.5 L13.5,15.5 L13.5,23.0052288 C13.5,23.5490746 13.9477153,24 14.5,24 C15.0561352,24 15.5,23.5546258 15.5,23.0052288 L15.5,15.5 L23.0052288,15.5 C23.5490746,15.5 24,15.0522847 24,14.5 C24,13.9438648 23.5546258,13.5 23.0052288,13.5 L15.5,13.5 L15.5,5.99477117 C15.5,5.45092539 15.0522847,5 14.5,5 C13.9438648,5 13.5,5.44537422 13.5,5.99477117 L13.5,13.5 Z" id="+"></path>
            </g>
        </g>
    </g>
</svg>