<svg id="Слой_1" data-name="Слой 1" xmlns="http://www.w3.org/2000/svg" viewBox="0 0 126.36 111"><defs><style>.cls-1{fill:#FE141D;}.cls-2{fill:#fff;}</style></defs><title>auto</title><polygon id="_Контур_" data-name="&lt;Контур&gt;" class="cls-1" points="31.59 111 0 55.5 31.59 0 94.77 0 126.36 55.5 94.77 111 31.59 111"/><g id="_Группа_" data-name="&lt;Группа&gt;"><path id="_Контур_2" data-name="&lt;Контур&gt;" class="cls-2" d="M72.67,53.68c-2.14,0-4.17,0-6.21,0-0.75,0-.81-0.4-0.81-1,0-1.94,0-3.87,0-5.81a0.87,0.87,0,0,1,.37,0C67,48.3,67.8,48,69.08,47a11.84,11.84,0,0,1,16.34,1.63A12.18,12.18,0,0,1,85,65.16a11.8,11.8,0,0,1-16.29.76c-4.81-4.29-9.22-9-13.79-13.58a8.2,8.2,0,0,0-6.18-2.83,7.3,7.3,0,0,0-6.48,4.55A7.63,7.63,0,0,0,44.07,62a7.46,7.46,0,0,0,7.82,1.34c2.43-1.1,2.54-1.5.69-3.69H59c0.78,0,.72.57,0.72,1.09q0,2.83,0,5.65a0.88,0.88,0,0,1-.33.07c-1-1.49-1.94-1-3.19-.07a11.69,11.69,0,0,1-13.76.45,12.07,12.07,0,0,1-5.26-12.46,11.85,11.85,0,0,1,9.92-9.58c4.4-.78,7.94.79,11,3.82q6.13,6.1,12.22,12.25a10.88,10.88,0,0,0,3.13,2.35A7.21,7.21,0,0,0,82,61a7.2,7.2,0,0,0-8.22-11.17C71.19,50.88,71,51.43,72.67,53.68Z" transform="translate(0)"/><path id="_Контур_3" data-name="&lt;Контур&gt;" class="cls-2" d="M35.35,27.49L25.67,44.26c-1.91,3.31-3.76,6.65-5.75,9.9a2.17,2.17,0,0,0,0,2.61c4.88,8.37,9.68,16.78,14.56,25.15,0.74,1.27.6,1.4-.86,1.57-2.83.34-4.31-.77-5.67-3.25C23.71,72.39,19.14,64.7,14.63,57a2.61,2.61,0,0,1,0-3.06Q21.86,41.54,29,29.05a2.58,2.58,0,0,1,2.81-1.58C32.83,27.58,33.92,27.49,35.35,27.49Z" transform="translate(0)"/><path id="_Контур_4" data-name="&lt;Контур&gt;" class="cls-2" d="M91,83.43c0.38-.71.62-1.21,0.9-1.69,4.79-8.3,9.55-16.61,14.4-24.87a2.47,2.47,0,0,0,0-2.91c-4.81-8.22-9.54-16.48-14.3-24.73-0.28-.48-0.53-1-0.94-1.73,1.74,0,3.25,0,4.77,0a1.27,1.27,0,0,1,1.12.89q7.53,13,15.08,26.06a1.75,1.75,0,0,1,0,2Q104.4,69.42,97,82.4a1.68,1.68,0,0,1-1.73,1C93.91,83.37,92.6,83.43,91,83.43Z" transform="translate(0)"/><path id="_Контур_5" data-name="&lt;Контур&gt;" class="cls-2" d="M91.76,58.53c0.51,7.74-5.41,14.31-12.82,13.94C86.22,70.26,90.33,65.61,91.76,58.53Z" transform="translate(0)"/><path id="_Контур_6" data-name="&lt;Контур&gt;" class="cls-2" d="M44.87,41.18C38.67,43.6,35,48.07,33.75,54.72,31.81,49,38.75,40.59,44.87,41.18Z" transform="translate(0)"/></g></svg>
