<svg id="Слой_1" data-name="Слой 1" xmlns="http://www.w3.org/2000/svg" viewBox="0 0 89.11 88.99"><defs><style>.cls-1{fill:#7bbae8;}</style></defs><title>chat</title><path class="cls-1" d="M38.23,39.29L38,39.16l0.17,0.09Z"/><path class="cls-1" d="M38.34,39.36l-0.11-.07,0.22,0.13Z"/><path class="cls-1" d="M37.68,39L38,39.16l0,0Z"/><g id="_Группа_" data-name="&lt;Группа&gt;"><g id="_Группа_2" data-name="&lt;Группа&gt;"><g id="_Группа_3" data-name="&lt;Группа&gt;"><path id="_Составной_контур_" data-name="&lt;Составной контур&gt;" class="cls-1" d="M33,70.94L28.2,69,28,68.89l-2.88-.73V66.44a21.48,21.48,0,0,1,5.21,1.49,1.4,1.4,0,0,0,1.75-.51l0.1-.11a21.37,21.37,0,0,0,4.31-13.06c0-10.73-7.48-19.46-16.66-19.46S3.15,43.52,3.15,54.25A21.29,21.29,0,0,0,7.62,67.53l0,0,0,0,0.1,0.1,0,0a1.39,1.39,0,0,0,.5.27h0l0.16,0H9l0.18,0,0.06,0,0.08,0a21.48,21.48,0,0,1,5.19-1.49v1.7l-3.07.74L11.2,69l-4.76,2A10.3,10.3,0,0,0,0,80.85v6.73A1.41,1.41,0,0,0,1.41,89H38a1.42,1.42,0,0,0,1.41-1.42V80.85A10.3,10.3,0,0,0,33,70.94Zm-23.76-6A18.67,18.67,0,0,1,6,54.25C6,45.07,12.18,37.6,19.81,37.6s13.85,7.47,13.85,16.65a18.71,18.71,0,0,1-3.24,10.69,23.64,23.64,0,0,0-2.76-.84,9.28,9.28,0,0,0,2.15-4.43,4.55,4.55,0,0,0,.06-8.93,1.4,1.4,0,0,0-1-.86c-5.46-1.11-7.8-4.24-7.89-4.37a1.4,1.4,0,0,0-2.15-.17,20,20,0,0,1-8.1,4.55,1.4,1.4,0,0,0-.95.84,4.55,4.55,0,0,0,.05,8.93A9.27,9.27,0,0,0,12,64.1,23.63,23.63,0,0,0,9.2,64.94ZM30,56.63V53.75A1.74,1.74,0,0,1,30,56.63ZM9.65,53.75v2.87A1.74,1.74,0,0,1,9.65,53.75ZM12.46,58V52.28a23.1,23.1,0,0,0,7.27-4,16.85,16.85,0,0,0,7.44,4V58a6.5,6.5,0,0,1-6.49,6.49H19A6.5,6.5,0,0,1,12.46,58Zm3.76,12.65a1.4,1.4,0,0,0,1.08-1.37V67.13a9.31,9.31,0,0,0,1.65.15h1.71a9.3,9.3,0,0,0,1.64-.15v2.13a1.4,1.4,0,0,0,1.06,1.36l2.7,0.68-0.24.85a12,12,0,0,1-12,0l-0.26-.91ZM13.89,86.17H9.27V80.54a1.41,1.41,0,0,0-2.81,0v5.63H2.81V80.85a7.43,7.43,0,0,1,4.58-7.26l0.09,0,3.39-1.41,0.37,1.3h0L14.8,86.17H13.89Zm8,0H17.72L14.79,75.71a15,15,0,0,0,5.05.9,14.37,14.37,0,0,0,5-.9Zm14.69,0H32.94V80.54a1.41,1.41,0,1,0-2.81,0v5.63H24.82l3.91-14,3.19,1.33,0.08,0a7.44,7.44,0,0,1,4.59,7.26v5.33h0Z"/><path id="_Составной_контур_2" data-name="&lt;Составной контур&gt;" class="cls-1" d="M22.71,21.6H29v6.53a1.41,1.41,0,0,0,2.47.92l2.95-3.4a1.4,1.4,0,0,0,1.33.95H51l6.46,7.45a1.41,1.41,0,0,0,2.47-.92V26.6h6.33a1.41,1.41,0,0,0,1.41-1.41V6.41A1.41,1.41,0,0,0,66.27,5H54.6V1.41A1.4,1.4,0,0,0,53.19,0H22.71a1.4,1.4,0,0,0-1.4,1.41V20.19A1.4,1.4,0,0,0,22.71,21.6Zm1.4-18.79H51.79V5H49.36a1.41,1.41,0,0,0,0,2.81H64.87v16H58.53a1.4,1.4,0,0,0-1.41,1.41v4.17l-4.41-5.09a1.41,1.41,0,0,0-1.06-.48H37.2v-16h7.48a1.41,1.41,0,0,0,0-2.81H35.79a1.4,1.4,0,0,0-1.4,1.41v15l-2.53,2.92V20.19a1.4,1.4,0,0,0-1.4-1.41H24.12v-16h0Z"/><path id="_Составной_контур_3" data-name="&lt;Составной контур&gt;" class="cls-1" d="M82.67,70.85l-4.69-2-3.15-2.08V66a9.33,9.33,0,0,0,4.69-6.47,4.54,4.54,0,0,0,2.56-7.51V47.62A12.14,12.14,0,0,0,70,35.5H69.06A12.14,12.14,0,0,0,56.94,47.62v4.45a4.54,4.54,0,0,0,2.58,7.49A9.33,9.33,0,0,0,64.2,66v0.69L61,68.82l-0.12,0-4.76,2a10.3,10.3,0,0,0-6.44,9.91v6.73a1.41,1.41,0,0,0,1.4,1.41h9.23a1.41,1.41,0,0,0,0-2.81H59V80.45a1.41,1.41,0,1,0-2.81,0v5.63H52.52V80.75a7.43,7.43,0,0,1,4.58-7.26l0.09,0L60.58,72l3.94,14.07a1.4,1.4,0,0,0,.31,2.77H87.71a1.42,1.42,0,0,0,1.4-1.42V80.75A10.3,10.3,0,0,0,82.67,70.85Zm-3-17.19a1.74,1.74,0,0,1,0,2.87V53.66ZM59.36,56.53a1.74,1.74,0,0,1,0-2.87v2.87Zm1.41-6.79H60.48l-0.06,0-0.08,0-0.07,0-0.06,0-0.07,0,0,0L60,50l0,0-0.07,0,0,0-0.06.05,0,0,0,0V47.62a9.33,9.33,0,0,1,9.32-9.32H70a9.33,9.33,0,0,1,9.32,9.32v2.54l0,0-0.06-.05,0,0-0.06,0L79,50l-0.06,0-0.06,0-0.06,0-0.08,0,0,0-0.09,0h0c-2.91-.66-3.83-4.44-3.84-4.47a1.41,1.41,0,0,0-2.51-.51C68.69,49.69,60.87,49.74,60.77,49.74Zm1.4,8.13v-5.4c2.38-.21,7.23-1,10.73-4.23a8.12,8.12,0,0,0,4,3.91v5.71a6.5,6.5,0,0,1-6.49,6.49H68.66A6.5,6.5,0,0,1,62.17,57.87Zm6.17,18.18,1.12-.82,1.15,0.85-0.37,1H68.76Zm1.13-4.59L67,69.08V67.5h0V67a9.3,9.3,0,0,0,1.65.15h1.71A9.3,9.3,0,0,0,72,67v1.78ZM66,81l-0.76-2.7a1.4,1.4,0,0,0,.34-0.18L66,77.77l0.36,0.87Zm-0.72-6.14-2-4.11,1-.65a1.4,1.4,0,0,0,.37.62l2.7,2.63ZM68,86.08l1-6.22h1l1,6.22H68Zm6.42-15.73a1.4,1.4,0,0,0,.21-0.29l1,0.65-2,4.11-0.48-.35h0l-1.57-1.15ZM73,81L72.66,78.6l0.3-.8,0.37,0.27a1.4,1.4,0,0,0,.47.22ZM86.3,86.08H82.65V80.45a1.41,1.41,0,0,0-2.81,0v5.63H74.53l3.91-14,3.19,1.33,0.08,0a7.44,7.44,0,0,1,4.59,7.26v5.33h0Z"/></g></g></g></svg>