<svg id="Слой_1" data-name="Слой 1" xmlns="http://www.w3.org/2000/svg" viewBox="0 0 36.28 46.5"><defs><style>.cls-1{fill:#787983;}</style></defs><title>doc</title><g id="_Группа_" data-name="&lt;Группа&gt;"><path id="_Составной_контур_" data-name="&lt;Составной контур&gt;" class="cls-1" d="M1,46.5H35.32a1,1,0,0,0,1-1V11.19a1,1,0,0,0,0-.1V11l0-.08h0l0-.08h0l0-.07h0l0-.06v0l0-.05,0,0,0-.05v0L25.77,0.28h0l-0.05,0,0,0-0.05,0h0l-0.06,0h0l-0.07,0h0L25.37,0h0L25.28,0H1A1,1,0,0,0,0,1V45.55A1,1,0,0,0,1,46.5ZM26.05,3.27l7,7h-7v-7ZM1.92,1.92H24.14v9.27a1,1,0,0,0,1,1h9.27V44.59H1.92V1.92h0Z"/><path id="_Контур_" data-name="&lt;Контур&gt;" class="cls-1" d="M28.45,17.1H7.83a1,1,0,1,0,0,1.92H28.45A1,1,0,0,0,28.45,17.1Z"/><path id="_Контур_2" data-name="&lt;Контур&gt;" class="cls-1" d="M28.45,24H7.83a1,1,0,0,0,0,1.92H28.45A1,1,0,0,0,28.45,24Z"/><path id="_Контур_3" data-name="&lt;Контур&gt;" class="cls-1" d="M28.45,30.84H7.83a1,1,0,1,0,0,1.92H28.45A1,1,0,0,0,28.45,30.84Z"/><path id="_Контур_4" data-name="&lt;Контур&gt;" class="cls-1" d="M18.14,37.71H7.83a1,1,0,0,0,0,1.92H18.14A1,1,0,0,0,18.14,37.71Z"/></g></svg>