<svg id="Слой_1" data-name="Слой 1" xmlns="http://www.w3.org/2000/svg" viewBox="0 0 348.99 47.67"><defs><style>.cls-1{fill:#263964;}</style></defs><title>forum</title><g id="_Группа_" data-name="&lt;Группа&gt;"><g id="_Группа_2" data-name="&lt;Группа&gt;"><path class="cls-1" d="M7.48,36.76v1.72H2.73v1.63H5.11a2.92,2.92,0,1,1,0,5.84H0.77V36.76H7.48ZM2.73,41.83v2.4H4.85a1.2,1.2,0,1,0,0-2.4H2.73Z" transform="translate(0.01 0.03)"/><path class="cls-1" d="M8.67,45.45l0.74-1.57a2,2,0,0,0,1.19.5,1.36,1.36,0,0,0,1.34-1L8.54,36.76h2.22L13,41.63l2.29-4.88h2.22l-3.79,7.43a3.07,3.07,0,0,1-3,1.93A3.35,3.35,0,0,1,8.67,45.45Z" transform="translate(0.01 0.03)"/><path class="cls-1" d="M18,44.38c0.94-.12,1.46-0.5,1.75-2.92l0.54-4.7H26.8v7.47h0.83v3.42h-2V45.95H19.94v1.69H18V44.38Zm2.58-.15h4.27V38.48H22l-0.36,3.11A4.08,4.08,0,0,1,20.56,44.22Z" transform="translate(0.01 0.03)"/><path class="cls-1" d="M28.06,45.45l0.74-1.57a2,2,0,0,0,1.19.5,1.36,1.36,0,0,0,1.34-1l-3.39-6.67h2.22l2.27,4.88,2.29-4.88h2.22l-3.79,7.43a3.07,3.07,0,0,1-3,1.93A3.35,3.35,0,0,1,28.06,45.45Z" transform="translate(0.01 0.03)"/><path class="cls-1" d="M49.65,36.76v7.47h0.84v3.42h-2V45.95H37.93V36.76h2v7.47H42.8V36.76h2v7.47h2.91V36.76h2Z" transform="translate(0.01 0.03)"/><path class="cls-1" d="M51.76,45.95V36.76h2V42.7L58,36.76h2v9.19H58V39.79l-4.38,6.16H51.76Z" transform="translate(0.01 0.03)"/><path class="cls-1" d="M61.94,45.95V36.76h6.5v1.72H63.89v1.94h4.45v1.72H63.89v2.08h4.55v1.72h-6.5Z" transform="translate(0.01 0.03)"/><path class="cls-1" d="M73.77,45.95V36.76h2V42.7L80,36.76h2v9.19H80V39.79l-4.38,6.16H73.77Z" transform="translate(0.01 0.03)"/><path class="cls-1" d="M90.25,45.95V42.09H85.91v3.86h-2V36.76h2v3.61h4.34V36.76h2v9.19h-2Z" transform="translate(0.01 0.03)"/><path class="cls-1" d="M96.28,45.95V38.48H93.59V36.76h7.33v1.72H98.25v7.47h-2Z" transform="translate(0.01 0.03)"/><path class="cls-1" d="M102.31,45.95V36.76h6.5v1.72h-4.55v1.94h4.45v1.72h-4.45v2.08h4.55v1.72h-6.5Z" transform="translate(0.01 0.03)"/><path class="cls-1" d="M109.93,44.38c0.92,0,1.46-.5,1.75-2.92l0.54-4.7h6.53v9.19h-2V38.48H114l-0.36,3.11c-0.44,3.82-1.82,4.52-3.69,4.52V44.38Z" transform="translate(0.01 0.03)"/><path class="cls-1" d="M120.14,44.38c0.92,0,1.46-.5,1.75-2.92l0.54-4.7H129v9.19h-2V38.48h-2.8l-0.36,3.11c-0.44,3.82-1.82,4.52-3.69,4.52V44.38Z" transform="translate(0.01 0.03)"/><path class="cls-1" d="M130.9,45.95V36.76h6.5v1.72h-4.55v1.94h4.45v1.72h-4.45v2.08h4.55v1.72h-6.5Z" transform="translate(0.01 0.03)"/><path class="cls-1" d="M144.52,45.95l-2.78-3.68-0.72.86v2.82h-2V36.76h2v4.11l3.25-4.11h2.41L143,41.07l3.9,4.88h-2.41Z" transform="translate(0.01 0.03)"/><path class="cls-1" d="M150.09,45.95V38.48H147.4V36.76h7.33v1.72h-2.67v7.47h-2Z" transform="translate(0.01 0.03)"/><path class="cls-1" d="M155.28,45.45L156,43.88a2,2,0,0,0,1.19.5,1.36,1.36,0,0,0,1.34-1l-3.39-6.67h2.22l2.27,4.88,2.29-4.88h2.22l-3.79,7.43a3.07,3.07,0,0,1-3,1.93A3.35,3.35,0,0,1,155.28,45.45Z" transform="translate(0.01 0.03)"/><path class="cls-1" d="M171.48,45.95l-0.56-1.56H167l-0.58,1.56h-2.23l3.55-9.19h2.45l3.54,9.19h-2.23Zm-2.54-7.23-1.43,4h2.87Z" transform="translate(0.01 0.03)"/><path class="cls-1" d="M174.15,44.38c0.92,0,1.46-.5,1.75-2.92l0.54-4.7H183v9.19h-2V38.48h-2.8l-0.36,3.11c-0.44,3.82-1.82,4.52-3.69,4.52V44.38Z" transform="translate(0.01 0.03)"/><path class="cls-1" d="M186.87,36.76V40h2.34a3,3,0,1,1,0,5.93h-4.3V36.76h2Zm0,5v2.48h2.08a1.24,1.24,0,1,0,0-2.48h-2.08Z" transform="translate(0.01 0.03)"/><path class="cls-1" d="M199.94,45.95V42.09H195.6v3.86h-2V36.76h2v3.61h4.34V36.76h2v9.19h-2Z" transform="translate(0.01 0.03)"/><path class="cls-1" d="M205.81,36.76V40h2.34a3,3,0,1,1,0,5.93h-4.3V36.76h2Zm0,5v2.48h2.08a1.24,1.24,0,1,0,0-2.48h-2.08Zm6.2,4.2V36.76h2v9.19h-2Z" transform="translate(0.01 0.03)"/><path class="cls-1" d="M215.93,45.95V36.76h6.5v1.72h-4.55v1.94h4.45v1.72h-4.45v2.08h4.55v1.72h-6.5Z" transform="translate(0.01 0.03)"/><path class="cls-1" d="M227.21,44.38c0.92,0,1.46-.5,1.75-2.92l0.54-4.7H236v9.19h-2V38.48h-2.8l-0.36,3.11c-0.44,3.82-1.82,4.52-3.69,4.52V44.38Z" transform="translate(0.01 0.03)"/><path class="cls-1" d="M238,45.95V36.76h2V42.7l4.26-5.94h2v9.19h-2V39.79l-4.38,6.16H238Z" transform="translate(0.01 0.03)"/><path class="cls-1" d="M247.6,44.38c0.94-.12,1.46-0.5,1.75-2.92l0.54-4.7h6.53v7.47h0.83v3.42h-2V45.95h-5.73v1.69h-2V44.38Zm2.58-.15h4.27V38.48h-2.8l-0.36,3.11A4.08,4.08,0,0,1,250.18,44.22Z" transform="translate(0.01 0.03)"/><path class="cls-1" d="M258.52,45.95V36.76H265v1.72h-4.55v1.94h4.45v1.72h-4.45v2.08H265v1.72h-6.5Z" transform="translate(0.01 0.03)"/><path class="cls-1" d="M266.69,45.95V36.76H271a3,3,0,1,1,0,5.93h-2.34v3.27h-2Zm5.39-6.23a1.23,1.23,0,0,0-1.35-1.24h-2.08V41h2.08A1.24,1.24,0,0,0,272.08,39.72Z" transform="translate(0.01 0.03)"/><path class="cls-1" d="M277.38,36.76V40h2.34a3,3,0,1,1,0,5.93h-4.3V36.76h2Zm0,5v2.48h2.08a1.24,1.24,0,1,0,0-2.48h-2.08Zm6.2,4.2V36.76h2v9.19h-2Z" transform="translate(0.01 0.03)"/><path class="cls-1" d="M291.17,45.95V36.76h4.3a3,3,0,1,1,0,5.93h-2.34v3.27h-2Zm5.39-6.23a1.23,1.23,0,0,0-1.35-1.24h-2.08V41h2.08A1.24,1.24,0,0,0,296.56,39.72Z" transform="translate(0.01 0.03)"/><path class="cls-1" d="M299.46,41.36a4.8,4.8,0,1,1,4.79,4.75A4.61,4.61,0,0,1,299.46,41.36Zm7.59,0a2.8,2.8,0,1,0-5.58,0A2.8,2.8,0,1,0,307.06,41.36Z" transform="translate(0.01 0.03)"/><path class="cls-1" d="M310.14,41.36A4.67,4.67,0,0,1,315,36.61a4.21,4.21,0,0,1,3.84,2.25l-1.68.83A2.49,2.49,0,0,0,315,38.34a3,3,0,0,0,0,6A2.46,2.46,0,0,0,317.19,43l1.68,0.81A4.23,4.23,0,0,1,315,46.11,4.67,4.67,0,0,1,310.14,41.36Z" transform="translate(0.01 0.03)"/><path class="cls-1" d="M319.74,41.36a4.67,4.67,0,0,1,4.89-4.75,4.21,4.21,0,0,1,3.84,2.25l-1.68.83a2.49,2.49,0,0,0-2.16-1.34,3,3,0,0,0,0,6A2.46,2.46,0,0,0,326.8,43l1.68,0.81a4.23,4.23,0,0,1-3.84,2.26A4.67,4.67,0,0,1,319.74,41.36Z" transform="translate(0.01 0.03)"/><path class="cls-1" d="M329.78,45.95V36.76h2V42.7L336,36.76h2v9.19h-2V39.79l-4.38,6.16h-1.89Z" transform="translate(0.01 0.03)"/><path class="cls-1" d="M340,45.95V36.76h2V42.7l4.26-5.94h2v9.19h-2V39.79l-4.38,6.16H340Z" transform="translate(0.01 0.03)"/></g><g id="_Группа_3" data-name="&lt;Группа&gt;"><path class="cls-1" d="M0,22.37V4.44H9.43c3.41,0,5.16,2.18,5.16,4.57a4,4,0,0,1-3.09,4.11,4.35,4.35,0,0,1,3.44,4.41c0,2.69-1.8,4.84-5.22,4.84H0ZM10.69,9.68a1.93,1.93,0,0,0-2.1-2H3.81v3.9H8.59A1.91,1.91,0,0,0,10.69,9.68ZM11,17a2.1,2.1,0,0,0-2.31-2.1H3.81v4.17H8.73A2,2,0,0,0,11,17Z" transform="translate(0.01 0.03)"/><path class="cls-1" d="M17.22,13.42c0-5.51,4.17-9.28,9.54-9.28a8.21,8.21,0,0,1,7.5,4.38L31,10.13a4.86,4.86,0,0,0-4.22-2.61,5.58,5.58,0,0,0-5.62,5.89,5.58,5.58,0,0,0,5.62,5.89A4.81,4.81,0,0,0,31,16.7l3.28,1.59a8.26,8.26,0,0,1-7.5,4.41C21.39,22.69,17.22,18.93,17.22,13.42Z" transform="translate(0.01 0.03)"/><path class="cls-1" d="M36.81,22.37V4.44H49.5V7.8H40.63v3.79h8.68v3.36H40.63V19H49.5v3.36H36.81Z" transform="translate(0.01 0.03)"/><path class="cls-1" d="M52.75,22.37V4.44h8.39c3.9,0,6,2.63,6,5.78a5.62,5.62,0,0,1-6,5.78H56.57v6.37H52.75ZM63.27,10.22A2.4,2.4,0,0,0,60.63,7.8H56.57v4.84h4.06A2.42,2.42,0,0,0,63.27,10.22Z" transform="translate(0.01 0.03)"/><path class="cls-1" d="M68.94,13.42a9.37,9.37,0,0,1,18.74,0A9.37,9.37,0,0,1,68.94,13.42Zm14.81,0c0-3.36-2.15-5.89-5.46-5.89s-5.43,2.53-5.43,5.89S75,19.3,78.29,19.3,83.75,16.75,83.75,13.42Z" transform="translate(0.01 0.03)"/><path class="cls-1" d="M89.77,13.42c0-5.51,4.17-9.28,9.54-9.28a8.21,8.21,0,0,1,7.5,4.38l-3.28,1.61a4.86,4.86,0,0,0-4.22-2.61,5.58,5.58,0,0,0-5.62,5.89,5.58,5.58,0,0,0,5.62,5.89,4.81,4.81,0,0,0,4.22-2.61l3.28,1.59a8.26,8.26,0,0,1-7.5,4.41C93.94,22.69,89.77,18.93,89.77,13.42Z" transform="translate(0.01 0.03)"/><path class="cls-1" d="M108.5,13.42c0-5.51,4.17-9.28,9.54-9.28a8.21,8.21,0,0,1,7.5,4.38l-3.28,1.61A4.86,4.86,0,0,0,118,7.53a5.58,5.58,0,0,0-5.62,5.89A5.58,5.58,0,0,0,118,19.3a4.81,4.81,0,0,0,4.22-2.61l3.28,1.59a8.26,8.26,0,0,1-7.5,4.41C112.67,22.69,108.5,18.93,108.5,13.42Z" transform="translate(0.01 0.03)"/><path class="cls-1" d="M128.1,22.37V4.44h3.82V16l8.31-11.59h3.93V22.37h-3.82v-12l-8.55,12H128.1Z" transform="translate(0.01 0.03)"/><path class="cls-1" d="M148,22.37V4.44h3.82V16l8.31-11.59H164V22.37H160.2v-12l-8.55,12H148ZM156,3.6a5.93,5.93,0,0,1-4.73-2.37L152.78,0A3.84,3.84,0,0,0,156,1.64,3.83,3.83,0,0,0,159.2,0l1.51,1.26A5.81,5.81,0,0,1,156,3.6Z" transform="translate(0.01 0.03)"/><path class="cls-1" d="M167,13.42c0-5.51,4.17-9.28,9.54-9.28A8.21,8.21,0,0,1,184,8.52l-3.28,1.61a4.86,4.86,0,0,0-4.22-2.61,5.58,5.58,0,0,0-5.62,5.89,5.58,5.58,0,0,0,5.62,5.89,4.81,4.81,0,0,0,4.22-2.61L184,18.28a8.26,8.26,0,0,1-7.5,4.41C171.14,22.69,167,18.93,167,13.42Z" transform="translate(0.01 0.03)"/><path class="cls-1" d="M197.21,22.37l-5.43-7.18-1.4,1.67v5.51h-3.82V4.44h3.82v8l6.35-8h4.71l-7.12,8.42,7.61,9.52h-4.71Z" transform="translate(0.01 0.03)"/><path class="cls-1" d="M203.93,22.37V4.44h3.82V16l8.31-11.59H220V22.37h-3.82v-12l-8.55,12h-3.68Z" transform="translate(0.01 0.03)"/><path class="cls-1" d="M223.79,22.37V4.44h3.82V16l8.31-11.59h3.92V22.37H236v-12l-8.55,12h-3.68Zm8-18.77a5.93,5.93,0,0,1-4.73-2.37L228.6,0a3.84,3.84,0,0,0,3.23,1.67A3.83,3.83,0,0,0,235,0l1.51,1.26A5.81,5.81,0,0,1,231.83,3.6Z" transform="translate(0.01 0.03)"/><path class="cls-1" d="M258.6,22.37v-1.8c-5.43-.46-8.66-3-8.66-7.15s3.23-6.67,8.66-7.15V4.44h3.82V6.26c5.43,0.48,8.66,3,8.66,7.15s-3.23,6.69-8.66,7.15v1.8H258.6Zm0-5.22V9.68c-3.09.38-4.73,1.72-4.73,3.74S255.51,16.78,258.6,17.15Zm3.82-7.47v7.47c3.09-.35,4.76-1.69,4.76-3.74S265.51,10.05,262.42,9.68Z" transform="translate(0.01 0.03)"/><path class="cls-1" d="M273.2,13.42a9.37,9.37,0,0,1,18.74,0A9.37,9.37,0,0,1,273.2,13.42Zm14.81,0c0-3.36-2.15-5.89-5.46-5.89s-5.43,2.53-5.43,5.89,2.12,5.89,5.43,5.89S288,16.75,288,13.42Z" transform="translate(0.01 0.03)"/><path class="cls-1" d="M294.89,22.37V4.44h8.39c3.9,0,6,2.63,6,5.78a5.62,5.62,0,0,1-6,5.78h-4.57v6.37h-3.82ZM305.4,10.22a2.4,2.4,0,0,0-2.63-2.42h-4.06v4.84h4.06A2.42,2.42,0,0,0,305.4,10.22Z" transform="translate(0.01 0.03)"/><path class="cls-1" d="M310.29,21.4l1.45-3.07a3.81,3.81,0,0,0,2.31,1c1.32,0,1.91-.54,2.61-1.85L310,4.44h4.33L318.81,14l4.46-9.52h4.33l-7.39,14.49a6,6,0,0,1-5.86,3.76A6.52,6.52,0,0,1,310.29,21.4Z" transform="translate(0.01 0.03)"/><path class="cls-1" d="M345.13,22.37V9.81l-5.05,12.56h-1.67L333.36,9.81V22.37h-3.82V4.44h5.35l4.36,10.83L343.6,4.44H349V22.37h-3.84Z" transform="translate(0.01 0.03)"/></g></g></svg>