<svg id="Слой_1" data-name="Слой 1" xmlns="http://www.w3.org/2000/svg" xmlns:xlink="http://www.w3.org/1999/xlink" viewBox="0 0 145.3 241.55"><defs><style>.cls-1{fill:url(#linear-gradient);}.cls-2{fill:#2b246a;}.cls-3{clip-path:url(#clip-path);}.cls-4{fill:url(#linear-gradient-3);}.cls-5{fill:url(#linear-gradient-4);}</style><linearGradient id="linear-gradient" x1="17.26" y1="96.51" x2="29.78" y2="-5.4" gradientUnits="userSpaceOnUse"><stop offset="0" stop-color="#eab82b"/><stop offset="0.69" stop-color="#c20e1a"/><stop offset="1" stop-color="#9d157c"/></linearGradient><clipPath id="clip-path" transform="translate(0 142.62)"><path id="_Составной_обтравочный_контур_" data-name="&lt;Составной обтравочный контур&gt;" class="cls-1" d="M32.58,89.06L30.22,97l-4.32,2,2.18-7.32Zm-11.75-6.4H29l-4.29,8.06H15.23ZM14.57,39.47L3,25.29l15.42-7.84,9.1,11.24L16.65,4.55,37.08,0,48.89,28.54,34.22,37l1.73,2.14-9.61,9.13,3.18,2.38-6.73,9.54L26,61.29,22.2,68.64l3.21,0.83L22.06,79.7,5.35,77.32l5.58-8.58L0.09,65.67,8.8,55.29l8.7,3L0,47.53,9.67,36.4Z"/></clipPath><linearGradient id="linear-gradient-3" x1="26.05" y1="43.54" x2="24.76" y2="-30.5" xlink:href="#linear-gradient"/><linearGradient id="linear-gradient-4" x1="3.33" y1="57.46" x2="34.26" y2="36.6" gradientUnits="userSpaceOnUse"><stop offset="0.06" stop-color="#b87c1d"/><stop offset="0.74" stop-color="#991e18"/><stop offset="1" stop-color="#991b19"/></linearGradient></defs><title>lift</title><g id="_Группа_" data-name="&lt;Группа&gt;"><g id="_Группа_2" data-name="&lt;Группа&gt;"><path id="_Составной_контур_" data-name="&lt;Составной контур&gt;" class="cls-2" d="M42.77,54.28l3.91,12.05H43.07l-2.65-9.56H40l-2.65,9.56H33.77l3.91-12.05h5.1Z" transform="translate(0 142.62)"/><path id="_Составной_контур_2" data-name="&lt;Составной контур&gt;" class="cls-2" d="M51.47,54.28v5.67l4.2-2.57v-3.1h3.41V66.33H55.67v-6l-4.2,2.57v3.44H48.06V54.28h3.41Z" transform="translate(0 142.62)"/><path id="_Составной_контур_3" data-name="&lt;Составной контур&gt;" class="cls-2" d="M63.39,55.31A9.67,9.67,0,0,1,69.07,54a9.67,9.67,0,0,1,5.68,1.31,5.76,5.76,0,0,1,2.41,5,5.73,5.73,0,0,1-2.41,5c-1.67,1.15-4,1.29-5.68,1.31s-4-.1-5.68-1.26a5.79,5.79,0,0,1-2.41-5A5.76,5.76,0,0,1,63.39,55.31Zm1.72,7.75a2.8,2.8,0,0,0,2.36,1.36v-8.3a2.86,2.86,0,0,0-2.36,1.36A6.58,6.58,0,0,0,65.11,63.06ZM73,57.48a2.8,2.8,0,0,0-2.36-1.36v8.3A2.8,2.8,0,0,0,73,63.06,6.59,6.59,0,0,0,73,57.48Z" transform="translate(0 142.62)"/><path id="_Составной_контур_4" data-name="&lt;Составной контур&gt;" class="cls-2" d="M87.85,54.28v2.5H84.54v9.56H81.13V56.78H77.86v-2.5h10Z" transform="translate(0 142.62)"/><path id="_Составной_контур_5" data-name="&lt;Составной контур&gt;" class="cls-2" d="M38.85,70.53a7.53,7.53,0,0,1,3.82.6,2.77,2.77,0,0,1,1.39,2.43,2.72,2.72,0,0,1-1.93,2.74,2.93,2.93,0,0,1,2.14,2.91A3,3,0,0,1,42.77,82a7.78,7.78,0,0,1-3.93.62H33.77V70.53h5.08Zm-1.67,4.73h1.67A2.55,2.55,0,0,0,40.22,75a1.15,1.15,0,0,0,.45-1,1.1,1.1,0,0,0-.45-1,2.39,2.39,0,0,0-1.38-.22H37.18v2.41Zm0,4.91h1.67A2.81,2.81,0,0,0,40.28,80a1.23,1.23,0,0,0,.55-1.12,1.18,1.18,0,0,0-.55-1.08,2.81,2.81,0,0,0-1.43-.22H37.18v2.65Z" transform="translate(0 142.62)"/><path id="_Составной_контур_6" data-name="&lt;Составной контур&gt;" class="cls-2" d="M59.67,70.53V73h-6.2v2H55a7.9,7.9,0,0,1,3.89.6,3.78,3.78,0,0,1,0,6.34,7.91,7.91,0,0,1-3.89.6H50.06V70.53h9.61Zm-6.2,9.59H55a3.36,3.36,0,0,0,1.52-.19,1.4,1.4,0,0,0,0-2.34A3.38,3.38,0,0,0,55,77.4h-1.5v2.72Z" transform="translate(0 142.62)"/><path id="_Составной_контур_7" data-name="&lt;Составной контур&gt;" class="cls-2" d="M65.25,70.53l2,6.66h0.34l1.93-6.66h3.65l-2.91,8.63a5.3,5.3,0,0,1-2.29,3.29,5.65,5.65,0,0,1-2.62.45H65.07V80.3h0.36a1.31,1.31,0,0,0,1.46-.89L67,79.16H66a1.65,1.65,0,0,1-1.69-1.07L61.6,70.53h3.65Z" transform="translate(0 142.62)"/><path id="_Составной_контур_8" data-name="&lt;Составной контур&gt;" class="cls-2" d="M81.7,70.53L85.14,80v2.58H73.23V80l3.44-9.47h5Zm-5,9.47h5l-2.31-7H79Z" transform="translate(0 142.62)"/><path id="_Составной_контур_9" data-name="&lt;Составной контур&gt;" class="cls-2" d="M88.89,70.53l2,6.66H91.2l1.93-6.66h3.65l-2.91,8.63a5.3,5.3,0,0,1-2.29,3.29A5.65,5.65,0,0,1,89,82.9H88.72V80.3h0.36a1.31,1.31,0,0,0,1.46-.89l0.09-.24h-1A1.65,1.65,0,0,1,88,78.09l-2.74-7.56h3.65Z" transform="translate(0 142.62)"/><path id="_Составной_контур_10" data-name="&lt;Составной контур&gt;" class="cls-2" d="M102,70.53v9.33h3.27V70.53h3.34v9.33h3.27V70.53h3.41v9.33H117l-1,2.72H98.58V70.53H102Z" transform="translate(0 142.62)"/><path id="_Составной_контур_11" data-name="&lt;Составной контур&gt;" class="cls-2" d="M127.42,70.53V73H121.7v2.12h5.41v2.5H121.7V80h5.89v2.58h-9.3V70.53h9.12Z" transform="translate(0 142.62)"/><path id="_Составной_контур_12" data-name="&lt;Составной контур&gt;" class="cls-2" d="M139.07,70.53V73h-5.72v2.12h5.41v2.5h-5.41V80h5.89v2.58h-9.3V70.53h9.12Z" transform="translate(0 142.62)"/><path id="_Составной_контур_13" data-name="&lt;Составной контур&gt;" class="cls-2" d="M145.3,70.13a1.94,1.94,0,0,1-.15.75,1.86,1.86,0,0,1-.4.61,1.94,1.94,0,0,1-.62.42,2.08,2.08,0,0,1-1.55,0,1.9,1.9,0,0,1-.62-0.42,2,2,0,0,1-.41-0.61,2,2,0,0,1,0-1.51,1.84,1.84,0,0,1,.4-0.62,1.87,1.87,0,0,1,.62-0.41,2.09,2.09,0,0,1,1.57,0,1.85,1.85,0,0,1,.61.41,1.88,1.88,0,0,1,.4.62A2,2,0,0,1,145.3,70.13Zm-0.4,0a1.57,1.57,0,0,0-.11-0.6,1.48,1.48,0,0,0-.32-0.49,1.52,1.52,0,0,0-.48-0.33,1.56,1.56,0,0,0-.62-0.12,1.53,1.53,0,0,0-.62.12,1.51,1.51,0,0,0-.49.33,1.47,1.47,0,0,0-.32.49,1.54,1.54,0,0,0-.12.6,1.63,1.63,0,0,0,.11.6,1.53,1.53,0,0,0,.31.48,1.5,1.5,0,0,0,.49.33,1.61,1.61,0,0,0,.63.12,1.68,1.68,0,0,0,.65-0.12,1.46,1.46,0,0,0,.49-0.33,1.45,1.45,0,0,0,.3-0.48A1.69,1.69,0,0,0,144.91,70.13Zm-1.69.16v0.43h0.19V71.1h-1V70.72h0.21V69.41h-0.21V69h1.15a1.05,1.05,0,0,1,.35.05,0.58,0.58,0,0,1,.23.14,0.51,0.51,0,0,1,.13.2,0.73,0.73,0,0,1,0,.24,0.67,0.67,0,0,1-.08.3,0.51,0.51,0,0,1-.25.24l0.26,0.54h0.25v0.33l-0.22,0h-0.19a0.39,0.39,0,0,1-.25-0.07,0.58,0.58,0,0,1-.14-0.21l-0.27-.58h-0.22Zm0.48-.64a0.23,0.23,0,0,0-.07-0.19,0.28,0.28,0,0,0-.19-0.06h-0.22v0.52h0.19a0.36,0.36,0,0,0,.2-0.05A0.24,0.24,0,0,0,143.69,69.65Z" transform="translate(0 142.62)"/><g id="_Группа_3" data-name="&lt;Группа&gt;"><g id="_Группа_обтравки_" data-name="&lt;Группа обтравки&gt;"><path id="_Составной_обтравочный_контур_2" data-name="&lt;Составной обтравочный контур&gt;" class="cls-1" d="M32.58,89.06L30.22,97l-4.32,2,2.18-7.32Zm-11.75-6.4H29l-4.29,8.06H15.23ZM14.57,39.47L3,25.29l15.42-7.84,9.1,11.24L16.65,4.55,37.08,0,48.89,28.54,34.22,37l1.73,2.14-9.61,9.13,3.18,2.38-6.73,9.54L26,61.29,22.2,68.64l3.21,0.83L22.06,79.7,5.35,77.32l5.58-8.58L0.09,65.67,8.8,55.29l8.7,3L0,47.53,9.67,36.4Z" transform="translate(0 142.62)"/><g class="cls-3"><polygon id="_Контур_" data-name="&lt;Контур&gt;" class="cls-4" points="26.65 43.92 4.67 18.79 21.16 9.49 30.08 22.72 26.61 10.22 42.06 0 46.75 29.17 35.26 41.38 34 36.86 26.65 43.92"/></g></g><path id="_Составной_контур_14" data-name="&lt;Составной контур&gt;" class="cls-5" d="M27.52,28.69l4.26,9.48L34.22,37l1.73,2.14L30.79,44,18.42,17.45ZM25.41,69.47l-1.24,3.78L10.94,68.74l9.63,2.67,1.63-2.77ZM17.5,58.31L21.92,61l0.86-.87L26,61.29l-1.29,2.45L8.8,55.29Zm12-7.7-4.07,5.72L9.67,36.4l4.9,3.07,9.17,11.18,2.6-2.43Z" transform="translate(0 142.62)"/></g></g></g></svg>