<svg id="Слой_1" data-name="Слой 1" xmlns="http://www.w3.org/2000/svg" viewBox="0 0 126.36 111"><defs><style>.cls-1{fill:#7bbae8;}.cls-2{fill:#61ab28;}.cls-3{fill:#fff;}.cls-4{fill:#518ec8;}.cls-5{fill:#b43dc8;}</style></defs><title>mats</title><path class="cls-1" d="M34.58,55.78l-0.22-.13,0.17,0.09Z"/><path class="cls-1" d="M34.69,55.85l-0.11-.07,0.22,0.13Z"/><path class="cls-1" d="M34,55.46l0.33,0.2,0,0Z"/><polygon id="_Контур_" data-name="&lt;Контур&gt;" class="cls-2" points="31.59 111 0 55.5 31.59 0 94.77 0 126.36 55.5 94.77 111 31.59 111"/><g id="_Группа_" data-name="&lt;Группа&gt;"><path id="_Контур_2" data-name="&lt;Контур&gt;" class="cls-3" d="M82.49,56.07a23.61,23.61,0,0,1-5,2.68,32.49,32.49,0,0,0-3.08,1.5,7.86,7.86,0,0,0-1.68,12.69,20.31,20.31,0,0,0,6.16,4,7,7,0,0,1,1.44.84,18.08,18.08,0,0,1-5.25-1.24c-0.48-.16-1-0.85-1.53-0.25a1.89,1.89,0,0,0,0,2,12.24,12.24,0,0,0,.86,1.37,11.5,11.5,0,0,1-6.25-2.3c-1.42-1-1.94-.86-2.23.92-0.16,1-.49,1.13-1.29.76a5.5,5.5,0,0,1-2-1c-1.5-1.82-2.87-1.39-4.46-.14a6.9,6.9,0,0,1-3,1.19c0.38-1,1.24-1.64,1.06-2.81-1.83.39-3.62,0.87-5.45,1.13a22.8,22.8,0,0,1-5.79.29c1-.67,2.18-0.62,3.21-0.92,3.72-1.11,7.3-2.46,9.56-5.91a9.71,9.71,0,0,0-1.38-12.82c-0.79-.79-1.57-0.51-2.38-0.39-2.51.35-5,.6-7.48-1.25,2.76,0.36,5.25.7,7.71-.8-2-1.47-4.58-1.84-6.06-4,3,2.27,7.22,1.29,10.27,4.43-0.16-1.53-.61-2.6-1.55-3.16-2.82-1.68-4.51-4.35-6.42-6.84A2.35,2.35,0,0,1,50,45.16c1.62,0.95,2.72,2.48,4,3.8s3.14,2,4.8,2.94c-1.19-1.88-.8-3.73,0-6,0.36,1.86,0,3.44.83,4.76,0.31,0.52.57,1.43,1.2,1.29,0.81-.18.36-1.07,0.32-1.63a8.5,8.5,0,0,1,2.75-7.53c0.61,0.73.09,1.41-.1,2.1a9.75,9.75,0,0,0,.16,6.56c0.28,0.67.49,1.52,1.42,1.52a2.1,2.1,0,0,0,1.82-1.39,18.35,18.35,0,0,0,1.29-4.62,2.74,2.74,0,0,1,.9-2c0.41,1.77.11,3.4,0.22,5,0,0.54-.26,1.41.88,1,1.27,0,2.09-1.06,3.42-1.46A3.42,3.42,0,0,1,71.72,52c-0.76.38-1.57,0.68-2.35,1a1.13,1.13,0,0,0-.87,1,1.21,1.21,0,0,0,1.25,1,9.06,9.06,0,0,0,6.63-1.7c0.75-.59,1.4-1.32,2.18-1.9-1.07,3.07-4.38,4.45-5.91,7.6,3.75-.42,6.64-2.28,9.82-3.26a0.18,0.18,0,0,1,.11.21A0.14,0.14,0,0,1,82.49,56.07Z"/><path id="_Контур_3" data-name="&lt;Контур&gt;" class="cls-3" d="M32.12,83.25c-1.8.58-2.73-.6-3.67-2.26C23.8,72.76,19.06,64.6,14.3,56.44a2.21,2.21,0,0,1,0-2.62Q21.45,41.6,28.45,29.29c0.91-1.61,1.86-2.4,3.83-2.26,3,0.21,3,.06,1.52,2.56-4.64,8-9.26,16.07-13.94,24.07a2.5,2.5,0,0,0,0,2.93c4.8,8.2,9.53,16.44,14.28,24.66,1.15,2,1.15,2-1.19,2H32.12Z"/><path id="_Контур_4" data-name="&lt;Контур&gt;" class="cls-3" d="M91.3,27.09c1.55,0,3.07,0,4.59,0A1.27,1.27,0,0,1,97,28q7.59,13.16,15.2,26.3a1.48,1.48,0,0,1,0,1.71Q104.59,69.13,97,82.31a1.56,1.56,0,0,1-1.61,1c-1.36-.06-2.73,0-4.12,0A2.93,2.93,0,0,1,92,81.49q7.24-12.57,14.52-25.11a2.12,2.12,0,0,0,0-2.47Q99.26,41.38,92,28.8A3.37,3.37,0,0,1,91.3,27.09Z"/><path id="_Контур_5" data-name="&lt;Контур&gt;" class="cls-3" d="M44.53,38.09a3.25,3.25,0,0,1,1.94-.67,14.63,14.63,0,0,1-1.62-4.15c2.62,0.26,3.85,1.72,3.47,4.16a0.42,0.42,0,0,0,.24.53,1,1,0,0,1,.38,1.56,1.38,1.38,0,0,1-1.87.22C46.2,39.22,45.38,38.64,44.53,38.09Z"/><path id="_Контур_6" data-name="&lt;Контур&gt;" class="cls-3" d="M54.11,35.21a0.87,0.87,0,0,1,.19.29c0.12,2.8-1.11,5.26-2,7.81a1,1,0,0,1-1.42.49,1.19,1.19,0,0,1-.61-1.56A3,3,0,0,1,50.95,41c0.82-.9,1.83-1.5,1.29-3.17C51.88,36.8,53.35,36.05,54.11,35.21Z"/><path id="_Контур_7" data-name="&lt;Контур&gt;" class="cls-3" d="M61.15,33.1c2.2,1.32,1.44-.63,1.83-1.28,1.59,1.24,2.47,3.07,1.89,4.19a2,2,0,0,1-2.36.85C60.85,36.27,61.43,34.58,61.15,33.1Z"/><path id="_Контур_8" data-name="&lt;Контур&gt;" class="cls-3" d="M69.48,35.18c1.11,0.29.93,2.14,2.63,2,0.52-.06.37,3.08-0.28,3.6a0.78,0.78,0,0,1-1.08,0C69.51,39.74,68.83,36.65,69.48,35.18Z"/><path id="_Контур_9" data-name="&lt;Контур&gt;" class="cls-3" d="M40.7,54.77c1.61-.14,2.88,0,3.57,1.44,0.33,0.67.9,0.29,1.34,0.46a1,1,0,0,1,1,1,1.08,1.08,0,0,1-1,.95c-1.25.24-2.1-.41-2.88-1.51C42.1,56.34,41.3,55.74,40.7,54.77Z"/><path id="_Контур_10" data-name="&lt;Контур&gt;" class="cls-3" d="M79.52,43.48c0.39,0.8,1.44.86,2,1.79l-2.38.58c-0.94,0-2,.95-2.76-0.37-0.8-1-.43-1.56.63-2,0.33-.12.83,0.13,1-0.42A1.18,1.18,0,0,1,79.52,43.48Z"/><path id="_Контур_11" data-name="&lt;Контур&gt;" class="cls-3" d="M42,44.37a5.17,5.17,0,0,1,4.28-.77c0.69,0.22,1.46.43,1.25,1.48s-1,1.16-1.82,1.07C44.35,46,43.36,45.09,42,44.37Z"/><path id="_Контур_12" data-name="&lt;Контур&gt;" class="cls-3" d="M88,39.06c-0.87,1.27-1.36,2.46-2.39,3.22-0.66.49-1.44,0.83-2.15,0.08s-0.15-1.46.43-2C85,39.3,86.33,39.16,88,39.06Z"/><path id="_Контур_13" data-name="&lt;Контур&gt;" class="cls-3" d="M49.27,67.29A4.74,4.74,0,0,1,50,63.22c0.43-.57.92-1.26,1.81-0.58a1.41,1.41,0,0,1,.22,2C51.43,65.76,50.3,66.33,49.27,67.29Z"/><path id="_Контур_14" data-name="&lt;Контур&gt;" class="cls-3" d="M68.74,31.28a29.72,29.72,0,0,1-.66,3.44c-0.27.88-.87,1.71-2,1.25s-0.65-1.47-.33-2.18A4.36,4.36,0,0,1,68.74,31.28Z"/><path id="_Контур_15" data-name="&lt;Контур&gt;" class="cls-3" d="M79,66.93a33.29,33.29,0,0,1-2.53-2.35c-0.62-.71-1-1.71-0.08-2.39,1.06-.8,1.61.2,2.1,1A5.46,5.46,0,0,1,79,66.93Z"/><path id="_Контур_16" data-name="&lt;Контур&gt;" class="cls-3" d="M60.65,36.88A5,5,0,0,1,60.37,41c-0.33.55-.68,1.22-1.6,0.77a1.31,1.31,0,0,1-.59-1.87C58.6,38.71,59.72,38,60.65,36.88Z"/><path id="_Контур_17" data-name="&lt;Контур&gt;" class="cls-3" d="M76.34,45.48c0.86,0.58,1.83.27,2.76,0.37l-0.91.47c0.57,0.59,1.37,1,1.66,2.09-1,0-1.84.05-2.71,0a2,2,0,0,1-1.92-1.16C74.84,46.19,75.87,46,76.34,45.48Z"/><path id="_Контур_18" data-name="&lt;Контур&gt;" class="cls-3" d="M67.4,37.38C68.18,38.31,69.18,39,69.66,40c0.36,0.79.59,1.71-.45,2.21s-1.43-.44-1.75-1.11A4,4,0,0,1,67.4,37.38Z"/><path id="_Контур_19" data-name="&lt;Контур&gt;" class="cls-3" d="M82.49,56.07a2.7,2.7,0,0,1,0-.32c1.19-2.1,2.89-3,5.28-2.22C86.64,55.73,84.71,56.19,82.49,56.07Z"/><path id="_Контур_20" data-name="&lt;Контур&gt;" class="cls-3" d="M79.57,34.16c-0.08,1-.1,1.78-0.22,2.56a1.94,1.94,0,0,1-1.43,1.75,1,1,0,0,1-1.17-.53,2,2,0,0,1,.38-2.22A4,4,0,0,1,79.57,34.16Z"/><path id="_Контур_21" data-name="&lt;Контур&gt;" class="cls-3" d="M47.09,49.34A4.76,4.76,0,0,1,51,48.55c0.69,0.18,1.34.41,1.18,1.34s-0.95,1.07-1.68,1C49.31,50.77,48.41,49.86,47.09,49.34Z"/><path id="_Контур_22" data-name="&lt;Контур&gt;" class="cls-3" d="M52.7,45.64a4.29,4.29,0,0,1,4,.09c0.51,0.29,1.16.57,0.86,1.43a1.24,1.24,0,0,1-1.68.74C54.5,47.63,53.76,46.47,52.7,45.64Z"/><path id="_Контур_23" data-name="&lt;Контур&gt;" class="cls-3" d="M42.51,53.93a4.77,4.77,0,0,1,3.9-.95c0.65,0.16,1.26.36,1.2,1.19a1.24,1.24,0,0,1-1.48,1.1C44.81,55.32,43.8,54.44,42.51,53.93Z"/><path id="_Контур_24" data-name="&lt;Контур&gt;" class="cls-3" d="M48.8,32.88a4,4,0,0,1,2.88,2.25c0.33,0.78.45,1.58-.55,2a1.3,1.3,0,0,1-1.81-1A24.48,24.48,0,0,1,48.8,32.88Z"/><path id="_Контур_25" data-name="&lt;Контур&gt;" class="cls-3" d="M75.49,43.56A8.69,8.69,0,0,1,72.76,46a1.29,1.29,0,0,1-1.91-.48c-0.38-.84.26-1.25,0.85-1.62A5.22,5.22,0,0,1,75.49,43.56Z"/><path id="_Контур_26" data-name="&lt;Контур&gt;" class="cls-3" d="M39.38,49.71a4.47,4.47,0,0,1,4,.43c0.53,0.36,1,.76.58,1.53a1.21,1.21,0,0,1-1.62.49C41.08,51.76,40.43,50.61,39.38,49.71Z"/><path id="_Контур_27" data-name="&lt;Контур&gt;" class="cls-3" d="M88.64,50.08c-1,.93-1.65,1.92-2.73,2.4A1.31,1.31,0,0,1,84,52c-0.44-.83.22-1.27,0.81-1.63A5,5,0,0,1,88.64,50.08Z"/><path id="_Контур_28" data-name="&lt;Контур&gt;" class="cls-3" d="M89.93,56.27C89,57,88.28,58,87.2,58.39c-0.72.28-1.49,0.4-1.93-.42s0.2-1.38.87-1.7A4.08,4.08,0,0,1,89.93,56.27Z"/><path id="_Контур_29" data-name="&lt;Контур&gt;" class="cls-3" d="M49.45,62.51A4,4,0,0,1,51.08,59a1.19,1.19,0,0,1,1.82-.07c0.64,0.7.19,1.31-.24,1.82C51.86,61.7,50.62,61.91,49.45,62.51Z"/><path id="_Контур_30" data-name="&lt;Контур&gt;" class="cls-3" d="M65.18,39.26l-0.89,1.42c-0.6.4-1.23,0.71-1.8,0a1.46,1.46,0,0,1,.12-1.76c0.6-1,1.7-1.44,2.54-2.32A5.9,5.9,0,0,1,65.18,39.26Z"/><path id="_Контур_31" data-name="&lt;Контур&gt;" class="cls-3" d="M87.38,45.34a24.72,24.72,0,0,1-2.56,2c-0.75.44-1.74,0.64-2.21-.38s0.49-1.41,1.19-1.72A4.48,4.48,0,0,1,87.38,45.34Z"/><path id="_Контур_32" data-name="&lt;Контур&gt;" class="cls-3" d="M36.73,58a4.14,4.14,0,0,1,3.65-.49c0.75,0.25,1.49.56,1.17,1.53s-1.15.93-2,.68A15.73,15.73,0,0,1,36.73,58Z"/><path id="_Контур_33" data-name="&lt;Контур&gt;" class="cls-3" d="M57,39.69a11.94,11.94,0,0,1-.91,3.19c-0.44.76-1,1.49-2,.92s-0.43-1.42,0-2.07A4.72,4.72,0,0,1,57,39.69Z"/><path id="_Контур_34" data-name="&lt;Контур&gt;" class="cls-3" d="M42.41,41.6a4,4,0,0,1,2.37-1.37,2.09,2.09,0,0,1,2.19.45,0.9,0.9,0,0,1-.06,1.12,2.09,2.09,0,0,1-2.21.53C43.95,42.16,43.21,41.86,42.41,41.6Z"/><path id="_Контур_35" data-name="&lt;Контур&gt;" class="cls-3" d="M79.52,43.48l-1.59-.38c-0.51-1.25-.4-1.57.7-1.72a4.39,4.39,0,0,1,3.75,1.49C81.28,43,80.5,43.59,79.52,43.48Z"/><path id="_Контур_36" data-name="&lt;Контур&gt;" class="cls-3" d="M83.47,38.38a9.16,9.16,0,0,1-2.71,1.84c-0.71.22-1.52,0.32-1.87-.64s0.46-1.2,1.05-1.44A4.09,4.09,0,0,1,83.47,38.38Z"/><path id="_Контур_37" data-name="&lt;Контур&gt;" class="cls-3" d="M68.81,44.11c0,1.64-.89,1.66-2,1a3.68,3.68,0,0,1-1.88-3C66.25,42.7,68,42.53,68.81,44.11Z"/><path id="_Контур_38" data-name="&lt;Контур&gt;" class="cls-3" d="M87,60c-1.29.35-2.17,1.11-3.32,1a1.07,1.07,0,0,1-1.15-1,0.94,0.94,0,0,1,.95-1A3.93,3.93,0,0,1,87,60Z"/><path id="_Контур_39" data-name="&lt;Контур&gt;" class="cls-3" d="M58.57,34.44c0.42,1.45.53,2.57-.11,3.63a0.94,0.94,0,0,1-1.22.62,1,1,0,0,1-.6-1.26C56.77,36.2,57.84,35.58,58.57,34.44Z"/><path id="_Контур_40" data-name="&lt;Контур&gt;" class="cls-3" d="M74,37.76c0.73,0.84,1.71,1.42,2,2.53a1,1,0,0,1-.48,1.44,1,1,0,0,1-1.35-.68A3.18,3.18,0,0,1,74,37.76Z"/><path id="_Контур_41" data-name="&lt;Контур&gt;" class="cls-3" d="M46.12,65.4a4.07,4.07,0,0,1,.65-3.15c0.35-.48.76-1.08,1.52-0.6s0.49,1.17.13,1.77A8,8,0,0,1,46.12,65.4Z"/><path id="_Контур_42" data-name="&lt;Контур&gt;" class="cls-3" d="M38.57,46.6A3.82,3.82,0,0,1,42,46.47a1,1,0,0,1,.77,1.13,1.06,1.06,0,0,1-1.35.71C40.31,48.19,39.64,47.27,38.57,46.6Z"/><path id="_Контур_43" data-name="&lt;Контур&gt;" class="cls-3" d="M40.25,61.93a3.77,3.77,0,0,1,2.51-2.37,1,1,0,0,1,1.46.43,1.13,1.13,0,0,1-.8,1.47C42.47,62,41.41,61.66,40.25,61.93Z"/><path id="_Контур_44" data-name="&lt;Контур&gt;" class="cls-3" d="M83.06,50.51c-0.23,1.08,0,2.12-.45,3.06-0.31.58-.72,1.11-1.48,0.76a1.05,1.05,0,0,1-.36-1.5A3.58,3.58,0,0,1,83.06,50.51Z"/><path id="_Контур_45" data-name="&lt;Контур&gt;" class="cls-3" d="M81.44,64.68a6.87,6.87,0,0,1-2.25-2A1.17,1.17,0,0,1,79.31,61c0.66-.46,1.16,0,1.55.55A3.79,3.79,0,0,1,81.44,64.68Z"/><path id="_Контур_46" data-name="&lt;Контур&gt;" class="cls-3" d="M61.07,41.8a3,3,0,0,1-.43,2.81c-0.25.3-.51,0.68-1,0.39a0.86,0.86,0,0,1-.41-1.16A6,6,0,0,1,61.07,41.8Z"/><path id="_Контур_47" data-name="&lt;Контур&gt;" class="cls-3" d="M43.51,46.26a3.12,3.12,0,0,1,2.2,1.66A0.75,0.75,0,0,1,45.63,49a0.79,0.79,0,0,1-1.19-.11A3.93,3.93,0,0,1,43.51,46.26Z"/><path id="_Контур_48" data-name="&lt;Контур&gt;" class="cls-3" d="M67.4,46.15c-0.59,1.2-.88,2.4-1.81,3.2-0.55.47-1.2,0.93-2,.19s-0.19-1.27.21-1.78A4.55,4.55,0,0,1,67.4,46.15Z"/></g><polygon id="_Контур_49" data-name="&lt;Контур&gt;" class="cls-4" points="31.59 111 0 55.5 31.59 0 94.77 0 126.36 55.5 94.77 111 31.59 111"/><g id="_Группа_2" data-name="&lt;Группа&gt;"><path id="_Контур_50" data-name="&lt;Контур&gt;" class="cls-3" d="M66.69,32.22L59,40.83H83.63L66.94,59.39H85.19l0.19,0.41L58.81,82.4q-0.58.12-.46-0.46l12.7-18H51.33L69.55,45.16a1.12,1.12,0,0,0-1.26-.3c-3.84,0-7.67,0-11.51,0a2.86,2.86,0,0,0-2.5,1.13c-1.27,1.53-2.66,3-4.23,4.7h8.06l-11.25,12-0.38-.34c1-2.28,1.95-4.57,3-6.84,0.37-.84.2-1.09-0.72-1.07A39.34,39.34,0,0,1,41.9,54l24.4-22.21C66.64,31.75,66.79,31.86,66.69,32.22Z"/><path id="_Контур_51" data-name="&lt;Контур&gt;" class="cls-3" d="M32.1,83.29c-1.72.55-2.65-.55-3.56-2.17C23.9,72.91,19.16,64.75,14.41,56.6a2.38,2.38,0,0,1,0-2.77Q21.63,41.47,28.73,29c0.77-1.36,1.6-2.09,3.19-1.83,1,0.16,2.46-.46,2.89.29s-0.73,1.77-1.23,2.64Q26.79,42,19.92,53.74a2.5,2.5,0,0,0,0,2.93c4.8,8.19,9.52,16.42,14.27,24.64,1.14,2,1.14,2-1.09,2h-1Z"/><path id="_Контур_52" data-name="&lt;Контур&gt;" class="cls-3" d="M91,83.29L97.8,71.48c2.83-4.9,5.62-9.83,8.51-14.69a2.58,2.58,0,0,0,0-3.07C101.52,45.49,96.78,37.21,92,28.94c-0.28-.48-0.53-1-0.93-1.72h4.79a1.29,1.29,0,0,1,1.12.91q7.55,13.07,15.11,26.12a1.64,1.64,0,0,1,0,1.88Q104.5,69.25,96.95,82.41a1.47,1.47,0,0,1-1.48.89C94.1,83.25,92.72,83.29,91,83.29Z"/><path id="_Контур_53" data-name="&lt;Контур&gt;" class="cls-3" d="M66.69,32.22l-0.39-.4a7.2,7.2,0,0,1,2.35-2A6.69,6.69,0,0,1,66.69,32.22Z"/><path id="_Контур_54" data-name="&lt;Контур&gt;" class="cls-3" d="M58.35,81.94l0.46,0.46a4.53,4.53,0,0,1-2,1.49Z"/></g><polygon id="_Контур_55" data-name="&lt;Контур&gt;" class="cls-5" points="31.59 110.63 0 55.5 31.59 0.37 94.77 0.37 126.36 55.5 94.77 110.63 31.59 110.63"/><g id="_Группа_3" data-name="&lt;Группа&gt;"><path id="_Контур_56" data-name="&lt;Контур&gt;" class="cls-3" d="M62.41,25.64c5.05,0,10.1,0,15.15,0a3.11,3.11,0,0,1,3,1.76q7.5,13.05,15.09,26a3.76,3.76,0,0,1,0,4.18q-7.55,13-15,26.09a3,3,0,0,1-2.77,1.68H46.73c-1.11,0-2.25-.27-2.27-1.56s1.08-1.69,2.31-1.69c9.64,0,19.28-.12,28.93-0.1a3.12,3.12,0,0,0,3.12-1.83q6.51-11.53,13.21-23a3,3,0,0,0,.07-3.45Q85.24,42.15,78.53,30.43a2.8,2.8,0,0,0-2.77-1.55q-13.43.08-26.86,0A2.91,2.91,0,0,0,46,30.59c-4.62,8.13-9.29,16.22-14,24.32-0.26.45-.53,0.89-0.8,1.33a1.61,1.61,0,0,1-2.35.69,1.58,1.58,0,0,1-.5-2.39l5.21-9.11C37,39.62,40.36,33.82,43.64,28a4,4,0,0,1,4-2.33c4.93,0.12,9.87,0,14.81,0v0Z"/><path id="_Контур_57" data-name="&lt;Контур&gt;" class="cls-3" d="M62.49,78.37c-3.56,0-7.11,0-10.67,0A3.84,3.84,0,0,1,48,76.27q-5.31-9.35-10.77-18.6a3.73,3.73,0,0,1,0-4.28Q42.71,44.2,47.92,34.9a3.81,3.81,0,0,1,3.72-2.18c7.17,0,14.35,0,21.52,0A7.23,7.23,0,0,1,75,33a1.34,1.34,0,0,1,1,1.4A1.45,1.45,0,0,1,75,36a6.59,6.59,0,0,1-1.7.14c-6.66,0-13.31,0-20,0a3.16,3.16,0,0,0-3.18,1.78Q45.56,46,40.85,54a2.75,2.75,0,0,0,0,3.16q4.82,8.14,9.5,16.36A2.65,2.65,0,0,0,53,75q9.38-.08,18.76,0a2.8,2.8,0,0,0,2.76-1.6c3.28-5.78,6.61-11.54,9.93-17.3a14.75,14.75,0,0,1,.91-1.45,1.57,1.57,0,0,1,2.28-.44,1.49,1.49,0,0,1,.49,2.12q-1.85,3.3-3.72,6.59C81.86,67.27,79.3,71.62,76.85,76a3.7,3.7,0,0,1-3.69,2.21c-3.55-.1-7.11,0-10.67,0v0.16Z"/><path id="_Контур_58" data-name="&lt;Контур&gt;" class="cls-3" d="M32.12,26.67c3.1,0,3.11,0,1.73,2.4-4.67,8.09-9.32,16.19-14,24.25a2.4,2.4,0,0,0,0,2.79q7.31,12.55,14.54,25.15c0.91,1.58.88,1.4-.94,1.64-2.71.36-4.14-.72-5.44-3.1-4.41-8-9.08-15.93-13.71-23.83a2.25,2.25,0,0,1,.06-2.64c4.73-8.12,9.46-16.24,14.09-24.41C29.36,27.22,30.35,26.12,32.12,26.67Z"/><path id="_Контур_59" data-name="&lt;Контур&gt;" class="cls-3" d="M91.17,26.68H96a1.31,1.31,0,0,1,1.11.93q7.53,13,15.07,26a1.82,1.82,0,0,1,0,2.06q-7.59,13.08-15.12,26.2a1.59,1.59,0,0,1-1.62,1c-1.36-.06-2.71,0-4.38,0,2-3.46,3.83-6.67,5.68-9.88,3.26-5.66,6.51-11.32,9.82-17a2.23,2.23,0,0,0,0-2.62c-4.69-8-9.32-16.05-14-24.09C92.16,28.52,91.74,27.72,91.17,26.68Z"/><path id="_Контур_60" data-name="&lt;Контур&gt;" class="cls-3" d="M62.49,39.62c2.35,0,4.71,0,7.06,0a3,3,0,0,1,2.9,1.71Q76,47.61,79.69,53.81a3,3,0,0,1,0,3.35c-2.45,4.14-4.83,8.33-7.25,12.49a7.49,7.49,0,0,1-.56.87,1.6,1.6,0,0,1-2.27.48,1.46,1.46,0,0,1-.53-2.1c0.6-1.17,1.27-2.31,1.93-3.45,1.6-2.78,3.17-5.58,4.82-8.33a2.75,2.75,0,0,0,.06-3.18c-1.91-3.13-3.75-6.31-5.56-9.49A2.56,2.56,0,0,0,67.87,43q-5.51.06-11,0a2.55,2.55,0,0,0-2.51,1.41c-1.83,3.25-3.68,6.48-5.61,9.67a2.58,2.58,0,0,0,0,3c1.95,3.24,3.82,6.53,5.72,9.8,0.29,0.5.58,1,.84,1.5,0.51,1,.82,2.07-0.37,2.7S53,71.05,52.45,70c-1.9-3.34-3.88-6.63-5.77-10-3.08-5.48-3.08-3.51,0-9,1.79-3.2,3.68-6.35,5.44-9.56a3.27,3.27,0,0,1,3.17-1.9C57.67,39.64,60.08,39.62,62.49,39.62Z"/><path id="_Контур_61" data-name="&lt;Контур&gt;" class="cls-3" d="M62.34,64.57c-4.14,1.12-6.34-1-7.78-4.56a34.69,34.69,0,0,0-2-3.6,1.5,1.5,0,0,1,.51-2.23,1.52,1.52,0,0,1,2.23.59c1.07,1.7,2.11,3.41,3.1,5.15a2.14,2.14,0,0,0,2.22,1.28,1.84,1.84,0,0,1,.52,0c3.51,0.67,5.59-.92,6.85-4.1A3.27,3.27,0,0,0,68,54c-2.24-4.15-2.22-4.17-7-4.16-1,0-2,0-2.92,0a1.56,1.56,0,0,1-1.58-1.52,1.43,1.43,0,0,1,1.41-1.63,49.35,49.35,0,0,1,8.58-.13,2.56,2.56,0,0,1,2,1.53c1.18,2,2.32,4.08,3.53,6.1a2.4,2.4,0,0,1-.06,2.73c-1.15,1.92-2.31,3.83-3.33,5.82a3,3,0,0,1-3.17,1.84C64.41,64.52,63.37,64.57,62.34,64.57Z"/></g></svg>