<svg id="Слой_1" data-name="Слой 1" xmlns="http://www.w3.org/2000/svg" viewBox="0 0 126.36 111"><defs><style>.cls-1{fill:#d91b22;}.cls-2{fill:#fff;}.cls-3{fill:#e69d25;}</style></defs><title>nets</title><polygon id="_Контур_" data-name="&lt;Контур&gt;" class="cls-1" points="31.59 111 0 55.5 31.59 0 94.77 0 126.36 55.5 94.77 111 31.59 111"/><g id="_Группа_" data-name="&lt;Группа&gt;"><path id="_Контур_2" data-name="&lt;Контур&gt;" class="cls-2" d="M72.67,53.68c-2.14,0-4.17,0-6.21,0-0.75,0-.81-0.4-0.81-1,0-1.94,0-3.87,0-5.81a0.87,0.87,0,0,1,.37,0C67,48.3,67.8,48,69.08,47a11.84,11.84,0,0,1,16.34,1.63A12.18,12.18,0,0,1,85,65.16a11.8,11.8,0,0,1-16.29.76c-4.81-4.29-9.22-9-13.79-13.58a8.2,8.2,0,0,0-6.18-2.83,7.3,7.3,0,0,0-6.48,4.55A7.63,7.63,0,0,0,44.07,62a7.46,7.46,0,0,0,7.82,1.34c2.43-1.1,2.54-1.5.69-3.69H59c0.78,0,.72.57,0.72,1.09q0,2.83,0,5.65a0.88,0.88,0,0,1-.33.07c-1-1.49-1.94-1-3.19-.07a11.69,11.69,0,0,1-13.76.45,12.07,12.07,0,0,1-5.26-12.46,11.85,11.85,0,0,1,9.92-9.58c4.4-.78,7.94.79,11,3.82q6.13,6.1,12.22,12.25a10.88,10.88,0,0,0,3.13,2.35A7.21,7.21,0,0,0,82,61a7.2,7.2,0,0,0-8.22-11.17C71.19,50.88,71,51.43,72.67,53.68Z" transform="translate(0)"/><path id="_Контур_3" data-name="&lt;Контур&gt;" class="cls-2" d="M35.35,27.49L25.67,44.26c-1.91,3.31-3.76,6.65-5.75,9.9a2.17,2.17,0,0,0,0,2.61c4.88,8.37,9.68,16.78,14.56,25.15,0.74,1.27.6,1.4-.86,1.57-2.83.34-4.31-.77-5.67-3.25C23.71,72.39,19.14,64.7,14.63,57a2.61,2.61,0,0,1,0-3.06Q21.86,41.54,29,29.05a2.58,2.58,0,0,1,2.81-1.58C32.83,27.58,33.92,27.49,35.35,27.49Z" transform="translate(0)"/><path id="_Контур_4" data-name="&lt;Контур&gt;" class="cls-2" d="M91,83.43c0.38-.71.62-1.21,0.9-1.69,4.79-8.3,9.55-16.61,14.4-24.87a2.47,2.47,0,0,0,0-2.91c-4.81-8.22-9.54-16.48-14.3-24.73-0.28-.48-0.53-1-0.94-1.73,1.74,0,3.25,0,4.77,0a1.27,1.27,0,0,1,1.12.89q7.53,13,15.08,26.06a1.75,1.75,0,0,1,0,2Q104.4,69.42,97,82.4a1.68,1.68,0,0,1-1.73,1C93.91,83.37,92.6,83.43,91,83.43Z" transform="translate(0)"/><path id="_Контур_5" data-name="&lt;Контур&gt;" class="cls-2" d="M91.76,58.53c0.51,7.74-5.41,14.31-12.82,13.94C86.22,70.26,90.33,65.61,91.76,58.53Z" transform="translate(0)"/><path id="_Контур_6" data-name="&lt;Контур&gt;" class="cls-2" d="M44.87,41.18C38.67,43.6,35,48.07,33.75,54.72,31.81,49,38.75,40.59,44.87,41.18Z" transform="translate(0)"/></g><polygon id="_Контур_7" data-name="&lt;Контур&gt;" class="cls-3" points="31.59 111 0 55.5 31.59 0 94.77 0 126.36 55.5 94.77 111 31.59 111"/><g id="_Группа_2" data-name="&lt;Группа&gt;"><path id="_Составной_контур_" data-name="&lt;Составной контур&gt;" class="cls-2" d="M87.77,45.8a17.63,17.63,0,0,1-1.37-2.36c-5.81-12-20.84-19-34.61-12.81a6.23,6.23,0,0,1-2.5.43,5,5,0,0,0-5.12,3.72,6.26,6.26,0,0,1-1.39,2.33,25,25,0,0,0-5,7.94,2.14,2.14,0,0,1-.9,1.39c-1.7.87-1.88,2.32-1.34,3.92A9.92,9.92,0,0,1,36,54.06,26.85,26.85,0,0,0,42.07,72.2c3.54,4.56,8.76,7.09,13.91,9.47a5.11,5.11,0,0,0,2.2.33h3.08c4.42,1,8.66-.51,12.66-2.43A10.06,10.06,0,0,1,78,78.42c2.18-.08,3.6-1.33,3.62-3.15a3.36,3.36,0,0,1,1.08-2.4,21.71,21.71,0,0,0,5.94-12.27c0.24-1.93.13-4,.74-5.76C90.49,51.45,89.67,48.56,87.77,45.8ZM64.62,29.31a22.69,22.69,0,0,1,5,1c6.24,2,11.67,6.18,14.27,11.29-1.45-.92-3.11-1.39-4-3.13C78.49,35.92,76,35,73,35.83a1.6,1.6,0,0,1-2.21-1c-1.3-2.31-3-4.27-6.06-3.75-1,.16-0.71-0.65-0.85-1.11C63.65,29.32,64.11,29.27,64.62,29.31ZM40.7,54.77c0.67-.9,1.06,0,1.45.38,2.15,2,2.14,2,.53,5.46l-2.73-3.56C39.11,55.95,40.22,55.42,40.7,54.77Zm-1.79.57c-0.38-1.16-.22-1.91.62-2.46,0.3-.19.64-0.15,0.69,0.14C40.45,54.13,39.32,54.4,38.92,55.35Zm3.44-2a1.89,1.89,0,0,1,2.76-.82c0.95,0.92-.53,2-0.62,3.48C43.51,54.92,42,54.52,42.35,53.3Zm2,6.35c0.63-2.11.66-2.1,2.5-1q0.74,0.42,1.49.82L50,60.27c-0.73.89-1.32,1.66-2,2.38-0.47.53-.81,1.68-1.41,1.49A5.32,5.32,0,0,1,44,61.92C43.51,61.21,44.15,60.39,44.37,59.65Zm3.84-9.37c0.47-.25,1-0.65,1.5,0l2,2.75c-1.63-.31-2.43-1.42-3.49-2.09C48,50.78,47.86,50.46,48.21,50.28Zm-1.3-6.22c0.76,0.51,2.3.72,1.36,2.46Zm24.73-4.62a8.31,8.31,0,0,1,.84,2.27c0,0.92-.26,1.11-0.83.8-0.75-.41-1.5-0.79-2.21-1.26s-1.65-.52-1.45-1.33a3,3,0,0,1,1.65-1.35A1.69,1.69,0,0,1,71.63,39.44Zm-6.55-4.67A1.14,1.14,0,0,1,64,33.35a1.39,1.39,0,0,1,1.54-1.26c2-.09,3,1.34,4.08,2.72a9.31,9.31,0,0,1,.58,1.1C68.29,35.48,66.67,35.17,65.08,34.77Zm8.63,14.5c-0.22.45-.56,0.22-0.87,0.13-1.09-.31-2.18-0.63-3.28-0.92s-2.05-.48-3.41-0.8L70.4,45a1,1,0,0,1,.45-0.22C71.81,44.77,74.13,48.43,73.71,49.27ZM73.1,40.34a2.77,2.77,0,0,1,1.64,1C73.2,42.58,73.25,41.43,73.1,40.34ZM72.92,50.7c0.79,0.27,1.41,3,.82,3.56a0.69,0.69,0,0,1-.79,0,61.27,61.27,0,0,1-9.45-4.43,1.78,1.78,0,0,1,1.93-.9A47.19,47.19,0,0,1,72.92,50.7Zm1.86,11.88c-0.74.15-.69-0.33-0.64-0.91,0.25-.41-0.28-1.53.84-1.34,0.57,0.1,1.7-.15,1.67.92S75.6,62.4,74.78,62.57Zm0.83,0.79c-0.39.8-.34,1.76-1.27,1.9a0.75,0.75,0,0,1-.6-1C74,63.19,74.77,63.46,75.61,63.37Zm3.5-13.72A3.31,3.31,0,0,1,78,51c-0.5.26-.68-0.44-1-0.77-0.76-.93-1.48-1.89-2.22-2.83a1.85,1.85,0,0,1-.57-1.91c1.48,1.12,2.86,2.13,4.2,3.19C78.81,48.87,79.46,49,79.11,49.65Zm0.81,0.6a2.61,2.61,0,0,1-.5,1.94A0.53,0.53,0,0,1,79,52C78.73,51.2,79.47,51,79.93,50.25Zm-2.15,3.22c0.51,0.05,1.38,1.32,1,1.93-0.77,1.22-1.78-.26-3,0.14C76.45,54.46,76.86,53.39,77.77,53.47Zm-3,1.22c0-.69,0-1.3-0.09-1.91-0.14-1.37.42-1.38,1.45-.86,0.66,0.34.94,0.6,0.33,1.21A5.23,5.23,0,0,1,74.78,54.69Zm-0.18,2.8c0.18-.3-0.38-1.46.83-1.09,0.92,0.29,2.38-.07,2.6,1.21,0.09,0.54,0,2.07-1.33,1.88C75.77,59.35,74.17,59.58,74.6,57.49Zm4.61,3.92a3.15,3.15,0,0,1-1.8.49C77.87,61.07,77.87,61.07,79.21,61.41Zm-0.81-2c-0.15-.52.21-1.9,1-1.93,1.64-.05,1,1.71,1.63,2.56C79.94,60.1,78.73,60.57,78.4,59.46Zm1.7-5.24a10.46,10.46,0,0,1,2.8,2C80.81,56.65,80.55,56.46,80.09,54.21ZM80.37,47a1.48,1.48,0,0,1-.25.94c-0.54.35-.87-0.34-1.26-0.61-1.27-.87-2.54-1.74-3.77-2.68-0.5-.38-1.57-0.6-1.18-1.41a2.67,2.67,0,0,1,2.1-1c0.63-.08,4.22,2.77,4.35,3.39A8.19,8.19,0,0,1,80.37,47Zm-2.62-5.14c2-1.15,2.51-.83,2.5,1.86Zm0.76-1.85c-1.93,1.07-4.58.17-6.2-2.23A26.76,26.76,0,0,1,78.5,40.06ZM74,36.91a4,4,0,0,1,4.77,1.88Zm-4.23,6.72c0.16,0.83-1.38,1.06-2.12,1.63-0.58.45-1.3,0.74-1.84,1.24-1.3,1.21-2.74,1.14-4.44.62a36.16,36.16,0,0,1,4.81-5.8,0.83,0.83,0,0,1,1.21,0C68.38,41.92,69.58,42.65,69.78,43.63ZM63,50.86a80.84,80.84,0,0,0,10.8,5C72,58.12,72,58.13,69.54,57.11a71.36,71.36,0,0,1-8-3.89c-0.42-.24-1.57-0.41-1-1.12S61.74,50.16,63,50.86ZM60.21,67.34a15.94,15.94,0,0,1-1.09-4.4A4.87,4.87,0,0,1,61,64.78C62.21,66.32,62.19,66.34,60.21,67.34Zm0.45,4.06c0.25,0.45.5,0.89,1,1.79-1.43-.69-2.39-1.14-3.35-1.62-0.45-.22-0.88-0.49-1.32-0.73a0.84,0.84,0,0,1,.09-0.21C59.33,69,59.32,69,60.66,71.4Zm0.67-8a3.59,3.59,0,0,1,2.93,1.18C62.32,66.26,62.31,64.17,61.32,63.42Zm2.07-.95c-1.45-1.1-2.84-2.28-4.29-3.38a1.84,1.84,0,0,1-.65-2.22,79.19,79.19,0,0,1,8.21,4.43c1,0.6.63,1.09-.07,1.42A2.94,2.94,0,0,1,63.4,62.47ZM58.31,54c0.71-1.47,1.67-.5,2.51,0a88.49,88.49,0,0,0,10,4.87c-0.37.39-.62,0.62-0.83,0.89-0.95,1.19-1.85,1.45-3.25.44a40.48,40.48,0,0,0-7-3.84C58.71,55.88,57.65,55.39,58.31,54ZM71.78,64.8a1.37,1.37,0,0,1,.33,1.92c-0.45.87-1,.17-1.41,0a12.69,12.69,0,0,1-4.31-2.61C68.21,64.23,70.11,63.31,71.78,64.8ZM71.85,63a3,3,0,0,1-2.39-1.36c-0.18-.24,2.19-2.37,2.59-2.25,0.66,0.19,1.64.21,1.39,1.32C73.22,61.62,73.62,63.05,71.85,63ZM60.59,50.31c-0.55.45-1.1,0.88-1.66,1.32l-0.28-.23,1.07-1.82c0.27-.45.6-0.4,1-0.14C61.3,49.84,60.89,50.07,60.59,50.31Zm-1.08-4c-0.09.28-.09,0.8-0.56,0.7a0.62,0.62,0,0,1-.38-0.91,33.51,33.51,0,0,1,1.54-7.23c0.15-.48.3-1,1-0.67a0.9,0.9,0,0,1,.62,1.3C61,41.82,60.28,44.1,59.51,46.36ZM60.79,34.5c-0.25.49-.69,0.15-1,0-0.48-.26-0.94-0.57-1.46-0.89,0.76-.38,1.27.12,1.83,0.26C60.43,33.91,61.08,33.93,60.79,34.5Zm-0.88,1.56a0.56,0.56,0,0,1-.15.42A1.44,1.44,0,0,1,58.2,36,1.94,1.94,0,0,1,59.91,36.06Zm-1.37,4.09C58,42,57.66,43.88,57.16,46c-1.59-1.28-3-2.46-4.51-3.62a0.85,0.85,0,0,1-.16-1.32c0.78-1.26,1.56-2.53,2.25-3.84a1.31,1.31,0,0,1,1.9-.71C59.32,37.45,59.3,37.39,58.55,40.15ZM52.19,60A4.79,4.79,0,0,1,53.88,58c-0.14,1.15-.4,1.87-1.21,2.23C52.53,60.33,52.11,60.24,52.19,60Zm0.16,1.42c-0.3.51-.54,1-0.82,1.39-0.61,1-1.26,1.88-1.85,2.84-0.42.68-.81,0.36-1.25,0.05s-0.84-.58-0.32-1.19c0.92-1.07,1.81-2.17,2.7-3.27A0.8,0.8,0,0,1,51.88,61,2.62,2.62,0,0,1,52.35,61.38Zm4.31-9.84c0.48,0.94-.51,1.64-0.83,2.44s-0.87.31-1.3,0.1c-1.89-.92-2.7-2.83-4-4.31C52.5,48.93,55.79,49.85,56.66,51.54ZM55,49c2-.65,2-0.64,1.88,1.3A4.28,4.28,0,0,1,55,49Zm0.4,9.53a7.36,7.36,0,0,1,2,2.2c0.27,0.66.18,1-.73,0.91C54.4,61.3,54.22,61,55.4,58.51ZM52.29,39c-0.43.57-.55,1.9-1.38,1.56a5.75,5.75,0,0,1-2.36-2.6c-0.23-.38.23-0.42,0.46-0.49a18,18,0,0,1,4.79-1C53.22,37.46,52.83,38.27,52.29,39Zm-0.73,3.76L57,47.1c-2.68,1-4.93.56-6.27-1.27C49.81,44.56,51.41,43.89,51.56,42.74ZM52,48.19c-1.14-.2-1.88.88-2.62-0.09a1,1,0,0,1,.39-1.45C50.69,46.44,51.07,47.39,52,48.19Zm-2.57,5.17C51,53.91,52,55.23,53.14,56.27a3.75,3.75,0,0,1,.39.66c-0.87.77-1.72,1.61-2.67,2.34-0.56.44-1.05-.16-1.53-0.39-0.82-.39-1.58-0.91-2.41-1.28C45.62,57,45.41,56.24,46,54.92,47,52.57,47,52.51,49.41,53.37ZM46.83,66.71c0.3-.16.86,0.57,1.16,1.17-0.64.73-1,1.74-2,2.08a0.57,0.57,0,0,1-.68-0.73A4.3,4.3,0,0,1,46.83,66.71Zm2.28,2.08c1.41,0.29,2.16,2.05,1.86,3.64A16.3,16.3,0,0,1,47,70.65C47.78,70,48,68.56,49.11,68.79ZM50.42,67c-0.41-.27-0.19-0.58,0-0.87l1.39-2.09,0.34,0.08c-0.14.83-.26,1.67-0.42,2.49a0.83,0.83,0,0,1-.43.83A1.71,1.71,0,0,1,50.42,67Zm2.48,2.72c0.51,0.36,1.23.45,1.47,1.14a0.52,0.52,0,0,1-.34.27,3.74,3.74,0,0,1-1.92-1.51A3.69,3.69,0,0,1,52.9,69.74Zm-0.11-2.57c0.14-.64.34-1.7,0.6-2.75,0.83-3.34.41-2.59,3.41-1.93A1.3,1.3,0,0,1,58,63.7a16.74,16.74,0,0,0,.44,2c0.72,2.71.52,3.13-2.1,4.23C55.25,70.39,52.66,68.7,52.79,67.17Zm9.69,7.61c-3.06.57-5.25-1.1-7.36-3C57.85,72,60,73.94,62.48,74.78Zm-1.78-6c0-1,.91-1.07,1.45-1.49s0.75,0.23,1,.56C64.43,69.6,66,73,66,74s-0.52.62-1,.46C63.48,74,60.75,70.32,60.7,68.76Zm3.43-1.62c-0.25-.38-0.84-0.78-0.15-1.26,0.52-.36.92-1,1.75-0.46a28.69,28.69,0,0,0,5.12,2.7c0.43,0.18.7,0.42,0.49,0.9-0.9,2-1.68,4.11-3.93,5.25A21.87,21.87,0,0,0,64.13,67.13Zm9.15,2.28c0.43-.55,3.78.1,4.4,0.8s1.05,1.34,1.71,2.19A31.32,31.32,0,0,1,69.2,75C70.66,73,71.92,71.17,73.28,69.41Zm2.12-3.28c-0.16-.56,1.28-3,1.94-3.17s1.54-.42,2.3-0.67c2.06-.67,2.06-0.68,2.07,1.49a4,4,0,0,1-2.09,4C78.23,68.52,75.8,67.55,75.39,66.13Zm7.09-8.36c0.77,0.14,1.75-.43,2.31.71a3,3,0,0,1-2,1.4c-0.95.21-.73-0.88-1-1.39S82,57.69,82.49,57.78Zm2-1.57C83.3,55,81.94,54.08,80.7,53c-0.6-.53,0-1.33.18-2.22a18.15,18.15,0,0,1,4.29,4.78,0.44,0.44,0,0,1,.07.6A0.5,0.5,0,0,1,84.48,56.2ZM81.48,45c-0.16-1.27-.27-2.23-0.39-3.17C82.32,42.12,82.47,42.85,81.48,45Zm-17.24-8.8a7.83,7.83,0,0,1,4.49,1.58c-0.87.42-1.36,1.6-2.16,1.24a9.82,9.82,0,0,1-2.94-2.25C63.21,36.33,63.84,36.18,64.24,36.19Zm-0.63,3.2,1.83,0.95L61.26,45,61,44.9c0.55-1.73,1.11-3.47,1.66-5.2C62.87,39.15,63.21,39.19,63.61,39.4ZM60.67,30c0.53-.35,1.16-1.07,1.79-0.43a2,2,0,0,1,.47,2.34c-0.41.62-.88,1.72-2.11,1.2-0.73-.31-1.5-0.52-2.4-0.82A8.46,8.46,0,0,1,60.67,30Zm-1.29-.63c-2.19,2.7-2.19,2.7-6.26,1.69C55.12,29.95,57.16,29.74,59.37,29.37Zm-3.64,4.19a1.59,1.59,0,0,1-2.31,1.2A17.56,17.56,0,0,0,48,34C49.93,31.46,51.66,31.54,55.73,33.56ZM47.21,35a1,1,0,0,1,1.07-.22c1.18,0.1,2.37.24,3.55,0.37l-0.1.27-3.26,1c-0.4.12-.82,0.22-1-0.25A1.76,1.76,0,0,1,47.21,35Zm0.85,3.73A8.85,8.85,0,0,0,49,40c1.7,2,1.71,2,.2,4.48a19.34,19.34,0,0,1-3.63-4c-0.34-.52-0.95-1.27,0-1.69C46.36,38.43,47.25,37.36,48.07,38.76Zm-1.75-3.83c-0.16,1,1.18,1.74-.27,2.34-0.37.15-.87,0.67-1.16,0C44.37,36.21,45.2,35.68,46.32,34.94Zm-2.85,2.83c0.27,1.12-.46,1.25-1.34,1.52A2.75,2.75,0,0,1,43.47,37.76Zm-4.12,7.49A9.79,9.79,0,0,1,43.49,40a3.08,3.08,0,0,1,.45-0.22,0.92,0.92,0,0,1,.58.78,27,27,0,0,0,2.87,6.21c0.65,1,0,1.79-.44,2.49-0.61.89-1.22,0-1.74-.27a22.33,22.33,0,0,0-5.11-2.38C39.31,46.33,39.12,46.06,39.35,45.25ZM40,47.4a19.26,19.26,0,0,1,5.3,2.72c-1.16.45-1.91,1.32-3,1.21-0.68-.07-1.49.72-2-0.14a6.82,6.82,0,0,1-1.1-3.53C39.15,46.93,39.68,47.3,40,47.4ZM37.17,47c-0.46,1.08-.32,1.79-0.93,2.42C36,48.53,36.24,47.9,37.17,47Zm0,11.36c-0.07-1.24-.14-2.48-0.22-3.92C38.62,55.78,38.2,57.06,37.13,58.39ZM38,53.86c-1.72-2.26-.35-4.13-0.2-6.4,0.63,1.55.88,2.83,1.4,4S38,52.67,38,53.86Zm3.07,14.86a4.58,4.58,0,0,1-1.16-2.21C40.52,67.11,41.64,67.45,41.09,68.72Zm0.36-2.26c-2.21-2.54-3.49-5.13-2.58-8.61C40,59.18,41,60.35,42,61.48a1.19,1.19,0,0,1,.22,1.25C42,63.89,41.75,65.07,41.45,66.46Zm2,5.11c-1.17-.73-1.17-0.73-1.1-2.68C43.78,69.7,43.78,69.7,43.44,71.57Zm-0.24-8.32c2.87,1.5,3,2.32.87,5.5C41.13,67.3,43.36,65.14,43.21,63.25Zm1.6,9.24a1.53,1.53,0,0,1,2-.89c0.87,0.37,1.69.83,2.89,1.43a7.83,7.83,0,0,1-3.44.54C45.57,73.45,44.56,73.28,44.81,72.49Zm1.81,2.43a0.75,0.75,0,0,1,.2-0.26c1.52,0,3.26-1.46,4.28-.67s0.54,2.75,1.33,4.46A24.48,24.48,0,0,1,46.62,74.92ZM55,73.48c-1,.35-1.59-0.26-2.44-0.28C53.59,72,54.16,72.86,55,73.48Zm-0.3,5.92c-1.25-.51-2.2-3-2.11-5.19,4.26,0.05,7.62,3,11.74,3.68C61.46,81.08,58.15,80.8,54.71,79.4Zm7.71,1.36a57.53,57.53,0,0,0,4.8-3.85c0.41-.42.86,0,1.27,0.09l4.83,1.3A25.7,25.7,0,0,1,62.41,80.76Zm7.4-4.88a47.11,47.11,0,0,0,10-2.4C77.3,77.17,74.07,78,69.81,75.88Zm8.57,0.93,2-1.59C80,76.55,79.36,76.9,78.38,76.81Zm7.76-11.76C85,67.43,84,69.79,81.59,71.28c-1.67,1-1.79-.55-2.32-1.2-0.8-1,.46-0.84.84-1a5.39,5.39,0,0,0,2.82-5.75c-0.21-1.39.1-1.82,1.44-1.81a6.21,6.21,0,0,0,1.7-.5A4.57,4.57,0,0,1,86.14,65.06Zm0.49-9.62a26.69,26.69,0,0,0-5-5.7c-1-.87-0.44-1.76.15-2.36s1,0.33,1.4.68a15.06,15.06,0,0,1,3.1,4A3.6,3.6,0,0,1,86.63,55.44Zm-3.56-9.28c-1-1,.31-2,0-3.19,3.5,1.8,4.13,4.87,4.42,8.15A47.15,47.15,0,0,0,83.07,46.16Z" transform="translate(0)"/><path id="_Контур_8" data-name="&lt;Контур&gt;" class="cls-2" d="M34.95,27.46a2.68,2.68,0,0,1-.71,1.85c-4.75,8.27-9.5,16.54-14.32,24.76a2.37,2.37,0,0,0,0,2.77q7.29,12.51,14.49,25.06c0.9,1.56.86,1.37-.92,1.62-2.7.37-4.13-.67-5.44-3.06-4.37-8-9-15.77-13.59-23.61a2.5,2.5,0,0,1,0-2.93c4.79-8.18,9.57-16.37,14.23-24.62,0.83-1.47,1.71-2.08,3.34-1.87A22.46,22.46,0,0,0,34.95,27.46Z" transform="translate(0)"/><path id="_Контур_9" data-name="&lt;Контур&gt;" class="cls-2" d="M91,83.48l10.51-18.23c1.65-2.87,3.27-5.76,5-8.58a2.08,2.08,0,0,0,0-2.47Q99.21,41.77,92,29.29c-0.31-.53-0.6-1.07-1-1.83,1.76,0,3.23,0,4.71,0a1.38,1.38,0,0,1,1.27,1q7.5,13,15,25.94a1.91,1.91,0,0,1,0,2.19q-7.48,12.89-14.89,25.81a1.93,1.93,0,0,1-2,1.13C93.8,83.42,92.55,83.48,91,83.48Z" transform="translate(0)"/></g></svg>