<svg id="Слой_1" data-name="Слой 1" xmlns="http://www.w3.org/2000/svg" viewBox="0 0 126.36 111"><defs><style>.cls-1{fill:#63adcd;}.cls-2{fill:#fff;}</style></defs><title>space</title><polygon id="_Контур_" data-name="&lt;Контур&gt;" class="cls-1" points="31.59 111 0 55.5 31.59 0 94.77 0 126.36 55.5 94.77 111 31.59 111"/><g id="_Группа_" data-name="&lt;Группа&gt;"><path id="_Контур_2" data-name="&lt;Контур&gt;" class="cls-2" d="M89.9,52.56a26,26,0,0,1-13.6,27.37,26.49,26.49,0,0,1-30.58-4.58,26.89,26.89,0,0,1-.64-38c0.27-.29.52-0.59,0.87-1-1.38-.61-2.86-0.41-4.21-1.15,2.15-.41,4.16-0.85,6.18-1.15a1.84,1.84,0,0,0,1.8-1.81,36.7,36.7,0,0,1,1.4-6c0.39,2.07.82,4.12,1.15,6.2A1.7,1.7,0,0,0,53.89,34a53.43,53.43,0,0,1,6.25,1.36c-2.13.43-4.25,0.92-6.39,1.26a1.56,1.56,0,0,0-1.48,1.51c-0.35,2.08-.76,4.15-1.19,6.47-0.83-2-.8-4-1.44-6a20.49,20.49,0,0,0-5.37,6.11c-4.64,8.11-4.78,16.37,0,24.37S56.41,81.17,65.7,80.81c14.06-.55,24.11-11.56,23.91-25.64,0-.63,0-1.26,0-1.88C89.46,52.95,89.26,52.56,89.9,52.56Z" transform="translate(0)"/><path id="_Контур_3" data-name="&lt;Контур&gt;" class="cls-2" d="M32.19,84.66c-1.72.56-2.64-.57-3.55-2.17Q21.69,70.21,14.56,58a2.37,2.37,0,0,1,0-2.77Q21.76,43,28.83,30.56c0.77-1.36,1.6-2.07,3.18-1.82,1,0.16,2.45-.46,2.87.3s-0.73,1.77-1.23,2.64Q26.86,43.54,20,55.36A2.22,2.22,0,0,0,20,58c4.8,8.22,9.54,16.47,14.3,24.72,1.14,2,1.13,2-1.1,2h-1Z" transform="translate(0)"/><path id="_Контур_4" data-name="&lt;Контур&gt;" class="cls-2" d="M90.92,84.66c0.62-1.1,1.08-1.94,1.56-2.77,4.59-7.94,9.16-15.9,13.79-23.82a2.36,2.36,0,0,0,0-2.76C101.5,47.11,96.75,38.86,92,30.61a3.55,3.55,0,0,1-.79-1.85H95.8a1.29,1.29,0,0,1,1.11.92q7.52,13,15.06,26a1.64,1.64,0,0,1,0,1.88Q104.37,70.68,96.84,83.8a1.47,1.47,0,0,1-1.48.87C94,84.62,92.62,84.66,90.92,84.66Z" transform="translate(0)"/><path id="_Составной_контур_" data-name="&lt;Составной контур&gt;" class="cls-2" d="M78.53,45c-0.68-.83-0.78-1.36,0-2.15s1.5-1.81,2.24-2.71l-0.3-.28q-7,6-14,12.08a2.83,2.83,0,0,1-1.94.84,3.64,3.64,0,0,0-3.68,3.69,3.73,3.73,0,0,0,3.71,3.71,3.66,3.66,0,0,0,3.8-3.77,2.86,2.86,0,0,1,.75-2,23,23,0,0,0,2.05-2.52c0.91-1.4,1.42-.92,2,0.25a9.57,9.57,0,1,1-18,2.74c0.11-.69.38-1.47-0.57-1.68s-1.15.69-1.28,1.4a11.41,11.41,0,0,0,19.2,10.06c3.6-3.51,4.74-8.84,2.22-13.17-1.28-2.19-.86-3.43.71-4.85a0.58,0.58,0,0,0,.11-0.14c0.6-1,1.1-1,1.85,0A15.87,15.87,0,0,1,80.55,59.4a16.21,16.21,0,0,1-19.22,13c-8.56-1.56-14.32-10.15-12.7-19,0.14-.75.41-1.62-0.59-1.83s-1.12.78-1.23,1.48C45.59,60.6,48,66.8,54.15,71.19s12.93,4.65,19.52.87A17.89,17.89,0,0,0,78.53,45Zm-14,13.54a2.07,2.07,0,0,1-2.06-2.22,2,2,0,0,1,2.14-2,2.15,2.15,0,0,1,2,2.35A2,2,0,0,1,64.58,58.56Z" transform="translate(0)"/><path id="_Контур_5" data-name="&lt;Контур&gt;" class="cls-2" d="M87.18,56.45a1,1,0,0,1-1,1.09,0.91,0.91,0,0,1-1-.92,0.89,0.89,0,0,1,.92-1A1,1,0,0,1,87.18,56.45Z" transform="translate(0)"/><path id="_Контур_6" data-name="&lt;Контур&gt;" class="cls-2" d="M64.62,64.19a1,1,0,0,1-1-.94,1,1,0,1,1,1.95-.09A1,1,0,0,1,64.62,64.19Z" transform="translate(0)"/><path id="_Контур_7" data-name="&lt;Контур&gt;" class="cls-2" d="M51.74,56.62a1,1,0,0,1-1,.92,0.88,0.88,0,0,1-.87-1,0.87,0.87,0,0,1,1-.88A1,1,0,0,1,51.74,56.62Z" transform="translate(0)"/><path id="_Контур_8" data-name="&lt;Контур&gt;" class="cls-2" d="M71.17,55.63a1,1,0,0,1,1.14.89,0.87,0.87,0,0,1-.88,1,0.88,0.88,0,0,1-1-.88A0.93,0.93,0,0,1,71.17,55.63Z" transform="translate(0)"/><path id="_Контур_9" data-name="&lt;Контур&gt;" class="cls-2" d="M79.33,56.39a1,1,0,0,1-.91,1.15,0.87,0.87,0,0,1-1-.89,0.9,0.9,0,0,1,.89-1A1,1,0,0,1,79.33,56.39Z" transform="translate(0)"/><path id="_Контур_10" data-name="&lt;Контур&gt;" class="cls-2" d="M64.5,36.53a0.88,0.88,0,0,1-.87-1,0.89,0.89,0,0,1,1.1-.81,0.87,0.87,0,0,1,.82.93A0.91,0.91,0,0,1,64.5,36.53Z" transform="translate(0)"/><path id="_Контур_11" data-name="&lt;Контур&gt;" class="cls-2" d="M65.57,42.76a1,1,0,0,1-1.06.94,0.85,0.85,0,0,1-.89-0.85,0.87,0.87,0,0,1,.94-1A1,1,0,0,1,65.57,42.76Z" transform="translate(0)"/><path id="_Контур_12" data-name="&lt;Контур&gt;" class="cls-2" d="M64.54,69.39a1,1,0,0,1,1,1,0.92,0.92,0,0,1-.93,1,0.89,0.89,0,0,1-1-.92A1,1,0,0,1,64.54,69.39Z" transform="translate(0)"/><path id="_Контур_13" data-name="&lt;Контур&gt;" class="cls-2" d="M64.54,76.83a0.9,0.9,0,0,1,1,.94,0.88,0.88,0,0,1-1,.89,0.85,0.85,0,0,1-.89-0.85A0.89,0.89,0,0,1,64.54,76.83Z" transform="translate(0)"/><path id="_Контур_14" data-name="&lt;Контур&gt;" class="cls-2" d="M43.51,55.62a0.9,0.9,0,0,1,.89,1,0.86,0.86,0,0,1-1,.88,0.83,0.83,0,0,1-.81-0.92A0.9,0.9,0,0,1,43.51,55.62Z" transform="translate(0)"/><path id="_Контур_15" data-name="&lt;Контур&gt;" class="cls-2" d="M58.79,56.57a0.89,0.89,0,0,1-1,1A0.83,0.83,0,0,1,57,56.66a0.87,0.87,0,0,1,.88-1A0.88,0.88,0,0,1,58.79,56.57Z" transform="translate(0)"/><path id="_Контур_16" data-name="&lt;Контур&gt;" class="cls-2" d="M64.55,50.79a1,1,0,0,1-.93-1,1,1,0,0,1,1.92.07A1,1,0,0,1,64.55,50.79Z" transform="translate(0)"/><path id="_Контур_17" data-name="&lt;Контур&gt;" class="cls-2" d="M88.88,49.85l-1.39-3.94a7.46,7.46,0,0,1,1.74,3.56A0.7,0.7,0,0,1,88.88,49.85Z" transform="translate(0)"/><path id="_Контур_18" data-name="&lt;Контур&gt;" class="cls-2" d="M88.88,49.85l0.35-.38a12.52,12.52,0,0,1,.67,3.09l-0.33.73Z" transform="translate(0)"/></g></svg>