<svg id="Слой_1" data-name="Слой 1" xmlns="http://www.w3.org/2000/svg" viewBox="0 0 76.31 91.89"><defs><style>.cls-1{fill:#7bbae8;}</style></defs><title>star</title><path class="cls-1" d="M31.83,42.19l-0.22-.13,0.17,0.09Z"/><path class="cls-1" d="M31.93,42.26l-0.11-.07L32,42.32Z"/><path class="cls-1" d="M31.27,41.87l0.33,0.2,0,0Z"/><g id="_Группа_" data-name="&lt;Группа&gt;"><path id="_Составной_контур_" data-name="&lt;Составной контур&gt;" class="cls-1" d="M76.2,81.79L64,52.42a1.47,1.47,0,1,0-2.71,1.12l11,26.55-10-2.9a1.47,1.47,0,0,0-1.69.7l-5,9.15L43.76,58.55A29.57,29.57,0,1,0,14.45,47.17L0.11,81.8a1.47,1.47,0,0,0,1.76,2l11.83-3.43,5.94,10.79a1.47,1.47,0,0,0,1.28.76H21a1.47,1.47,0,0,0,1.27-.9L33.65,63.54a1.47,1.47,0,0,0-2.71-1.12L20.75,87l-5-9.15a1.47,1.47,0,0,0-1.69-.7L4,80.1l12.58-30.4a29.47,29.47,0,0,0,21.58,9.38c0.88,0,1.75,0,2.61-.12L54,91a1.47,1.47,0,0,0,1.27.9h0.08a1.47,1.47,0,0,0,1.28-.76L62.6,80.33l11.83,3.43a1.47,1.47,0,0,0,1.76-2h0ZM11.53,29.55A26.61,26.61,0,1,1,38.15,56.15,26.64,26.64,0,0,1,11.53,29.55h0Z"/><path id="_Составной_контур_2" data-name="&lt;Составной контур&gt;" class="cls-1" d="M55.09,24a1.47,1.47,0,0,0-1.15-1l-9.87-1.65-4.62-8.87a1.47,1.47,0,0,0-2.6,0l-4.62,8.87L22.35,23a1.47,1.47,0,0,0-.8,2.47l7,7.14-1.47,9.9a1.47,1.47,0,0,0,2.1,1.53l9-4.46,9,4.46a1.47,1.47,0,0,0,2.1-1.53l-1.48-9.89,7-7.14A1.47,1.47,0,0,0,55.09,24Zm-10,7.09a1.47,1.47,0,0,0-.4,1.24l1.17,7.83L38.8,36.67a1.47,1.47,0,0,0-1.31,0L30.4,40.2l1.17-7.83a1.47,1.47,0,0,0-.4-1.24l-5.55-5.65,7.81-1.31a1.47,1.47,0,0,0,1.06-.77l3.66-7,3.66,7a1.47,1.47,0,0,0,1.06.77l7.81,1.31-5.55,5.65h0Z"/><path id="_Контур_" data-name="&lt;Контур&gt;" class="cls-1" d="M60.36,31a1.47,1.47,0,0,0-1.65,1.26,20.75,20.75,0,1,1,0-5.48,1.47,1.47,0,1,0,2.91-.39,23.68,23.68,0,1,0,0,6.25A1.47,1.47,0,0,0,60.36,31h0Z"/></g></svg>