<svg id="Слой_1" data-name="Слой 1" xmlns="http://www.w3.org/2000/svg" xmlns:xlink="http://www.w3.org/1999/xlink" viewBox="0 0 205.05 119.6"><defs><style>.cls-1{fill:none;}.cls-2{clip-path:url(#clip-path);}.cls-3{fill:url(#Безымянный_градиент_69);}.cls-4{opacity:0.71;fill:url(#Безымянный_градиент_92);}.cls-5{clip-path:url(#clip-path-2);}.cls-6{fill:url(#Безымянный_градиент_57);}.cls-7{opacity:0.82;fill:url(#linear-gradient);}.cls-8{clip-path:url(#clip-path-3);}.cls-9{fill:url(#Безымянный_градиент_59);}.cls-10{opacity:0.76;fill:url(#linear-gradient-2);}.cls-11{fill:#1d186d;}</style><clipPath id="clip-path" transform="translate(20.03 20.9)"><path id="_Составной_обтравочный_контур_" data-name="&lt;Составной обтравочный контур&gt;" class="cls-1" d="M45,54.35l3.86,1.54,0.79,2.25-3.57-1.42ZM41.3,60l0.37-4.1,3.85,2.51-0.43,4.75Zm-21.93,1.2-7.63,5.17L8.51,58.24l6-4.06L2,58.55,0.6,48.1l14.83-4.64L19,51.2l1.15-.77,4.14,5.23,1.34-1.49L30.11,58l0.72-1.58,3.51,2.25,0.56-1.57,5,2.14-1.94,8.26-4-3.18-2,5.3L27,64.76,29,60.53l-6.19,8.29-5.14-5.34Z"/></clipPath><linearGradient id="Безымянный_градиент_69" x1="577.55" y1="123.1" x2="637.05" y2="123.1" gradientTransform="translate(-516.37 -314.99) scale(0.89 3.1)" gradientUnits="userSpaceOnUse"><stop offset="0" stop-color="#f7683f"/><stop offset="0.39" stop-color="#f24b41"/><stop offset="0.5" stop-color="#ea4b4c"/><stop offset="1" stop-color="#b95698"/></linearGradient><linearGradient id="Безымянный_градиент_92" x1="-0.3" y1="89.61" x2="18.81" y2="76.72" gradientTransform="translate(11.99 -23.7) rotate(-2.04)" gradientUnits="userSpaceOnUse"><stop offset="0.06" stop-color="#9f0358"/><stop offset="0.74" stop-color="#aa3f32"/><stop offset="1" stop-color="#c43512"/></linearGradient><clipPath id="clip-path-2" transform="translate(20.03 20.9)"><path id="_Составной_обтравочный_контур_2" data-name="&lt;Составной обтравочный контур&gt;" class="cls-1" d="M7.44,38.62L4.07,41,1.75,40.5l3.11-2.25ZM4.71,32.46L8,35l-4.18,1.9L0,34ZM15.44,13.31L15.17,4.09l8.56,1.6L23.91,13,27,0l9.55,4.45-4,15-8.44-1.13,0,1.38-6.63.7L18,22.33l-5.61,1.75,0.95,1.45L9.55,27.28l1,1.31L6.1,31.65,0.17,25.58,5,23.87,1.64,19.32,8.3,17.85l2.54,3.87L7.16,12.05l7.27-1.48Z"/></clipPath><linearGradient id="Безымянный_градиент_57" x1="-10.56" y1="0.45" x2="48.94" y2="0.45" gradientTransform="translate(0.36 16.5) scale(0.89 3.41)" gradientUnits="userSpaceOnUse"><stop offset="0" stop-color="#ffb137"/><stop offset="1" stop-color="#f9833d"/></linearGradient><linearGradient id="linear-gradient" x1="-731.89" y1="-1173.3" x2="-712.78" y2="-1186.18" gradientTransform="matrix(-0.51, 0.86, -0.86, -0.51, -1368.48, 44.7)" gradientUnits="userSpaceOnUse"><stop offset="0.06" stop-color="#c0702c"/><stop offset="0.74" stop-color="#aa3f32"/><stop offset="1" stop-color="#a93e32"/></linearGradient><clipPath id="clip-path-3" transform="translate(20.03 20.9)"><path id="_Составной_обтравочный_контур_3" data-name="&lt;Составной обтравочный контур&gt;" class="cls-1" d="M39.92,14.46l-0.74-4.09,1.49-1.86,0.69,3.78Zm6.73,0.2L43,16.52l0.09-4.6,4.26-2.16Zm12.64,18,8.43,3.73-5.13,7-6.64-3,10.37,8.36-8.13,6.69L46.38,45.33,51,38.21l-1.26-.57L52,31.36l-2-.34L50.9,25.2l-1.71.23,0-4.17-1.63.36-0.83-5.35,8-2.74-0.55,5.12,5.57-1.09L58.28,24.2l-4.59.62L64,25.68l-1.8,7.19Z"/></clipPath><linearGradient id="Безымянный_градиент_59" x1="234.06" y1="138.43" x2="293.57" y2="138.43" gradientTransform="translate(-177.25 -439.99) scale(0.89 3.41)" gradientUnits="userSpaceOnUse"><stop offset="0" stop-color="#f9833d"/><stop offset="1" stop-color="#f25240"/></linearGradient><linearGradient id="linear-gradient-2" x1="-502.66" y1="-17025.7" x2="-487.65" y2="-17035.83" gradientTransform="matrix(-0.89, 0.45, 0.45, 0.89, 7319.58, 15442.23)" xlink:href="#linear-gradient"/></defs><title>vadus</title><g class="cls-2"><rect class="cls-3" x="-3.46" y="38.82" width="52.84" height="54.59" transform="translate(50.33 156.62) rotate(-166.86)"/></g><path id="_Составной_контур_" data-name="&lt;Составной контур&gt;" class="cls-4" d="M14.55,54.18l4.94-1.71L19,51.2l1.15-.77,2.22,2.8-13.86,5ZM34.9,57.07l1.84,0.79-2.85,6.43,1.77-4.71-1.32-.94ZM29,60.53l1.55-2.09L30.11,58l0.72-1.58L32,57.15,27,64.76Zm-3.32-6.37,2.68,2.3-10.7,7,1.76-2.32,6-4.09-1.1-1.41Z" transform="translate(20.03 20.9)"/><g class="cls-5"><rect class="cls-6" x="-9.02" y="-12.01" width="52.84" height="60.07" transform="translate(13.6 31.19) rotate(-28.02)"/></g><path id="_Составной_контур_2" data-name="&lt;Составной контур&gt;" class="cls-7" d="M23.91,13l-1.2,5.09,1.34,0.27,0,1.38-3.55.37L23.73,5.69ZM10.58,28.6L8.92,29.73,5,23.87l3,4,1.5-.61Zm0.26-6.87,0.93,2.43,0.61-.08,0.95,1.45-1.26.58L8.3,17.85ZM18,22.33l-3.38,1L14.43,10.57l1,2.73,0.23,7.27,1.78-.17Z" transform="translate(20.03 20.9)"/><g class="cls-8"><rect class="cls-9" x="30.62" y="1.62" width="52.84" height="60.07" transform="translate(98.62 -9.03) rotate(80.26)"/></g><path id="_Составной_контур_3" data-name="&lt;Составной контур&gt;" class="cls-10" d="M55.94,40.39l-4.07-3.28L51,38.21l-1.26-.57L51,34.27l11.6,9.09ZM47.6,21.62l-0.3-2,7-1-4.93,1-0.1,1.62Zm6.09,3.2-2.6-.21-0.19.59-1.71.23,0-1.39,9.07,0.16ZM50.05,31l0.53-3.49,11.62,5.35-2.9-.26-6.66-2.93L52,31.36Z" transform="translate(20.03 20.9)"/><g id="_Группа_" data-name="&lt;Группа&gt;"><path class="cls-11" d="M89.29,17.51h4.92c2.94,0,4.21,1.27,4.21,3a2.09,2.09,0,0,1-.91,1.75,3.08,3.08,0,0,1-.92.43v0.08a4.85,4.85,0,0,1,1.32.49,2.39,2.39,0,0,1,1.3,2.18c0,1.67-1.51,3.18-4.38,3.18H89.29V17.51ZM94.22,22c1.27,0,1.91-.64,1.91-1.35s-0.63-1.35-1.91-1.35h-2.7V22h2.7Zm-2.7,1.83V26.8h3.34c1.45,0,2.06-.62,2.06-1.43s-0.62-1.51-2.06-1.51H91.52Z" transform="translate(20.03 20.9)"/><path class="cls-11" d="M112.37,28.63H110l-0.87-2.22h-5.48l-0.87,2.22h-2.38L105,17.51h2.78Zm-7.94-4.13h3.89l-1.91-4.61h-0.08Z" transform="translate(20.03 20.9)"/><path class="cls-11" d="M123.94,17.51V26.8h1.43V31h-2.22V28.63H115.2V31H113V26.8h0.16c1,0,1.73-.78,1.91-2.22l0.87-7.07h8Zm-6.59,7.07a3.63,3.63,0,0,1-.54,1.53,4.68,4.68,0,0,1-.49.62V26.8h5.4V19.33H118Z" transform="translate(20.03 20.9)"/><path class="cls-11" d="M131,25.61H130l-3.89-8.1h2.46l3,6.43h0.16l3-6.43h2.46L132,28.63h-2.46Z" transform="translate(20.03 20.9)"/><path class="cls-11" d="M146.94,17.75a5,5,0,0,1,1,.56l-1,1.51a5.61,5.61,0,0,0-.76-0.37,5.1,5.1,0,0,0-1.86-.35,3.77,3.77,0,0,0-4,4,3.77,3.77,0,0,0,4,4,4.64,4.64,0,0,0,2-.44,4.71,4.71,0,0,0,.79-0.43l1,1.51a5.57,5.57,0,0,1-1,.64,6.56,6.56,0,0,1-2.84.63,5.74,5.74,0,0,1-6.12-5.88,5.74,5.74,0,0,1,6.12-5.88A7.06,7.06,0,0,1,146.94,17.75Z" transform="translate(20.03 20.9)"/><path class="cls-11" d="M96.6,36.57h2.3l-0.79,2.86a4.9,4.9,0,0,1-1.25,2.35,2.11,2.11,0,0,1-.73.51v0.08l3.65,5.32H97.16L93.9,42.92H91.52v4.77H89.29V36.57h2.22V41.1h2.07a2.14,2.14,0,0,0,2.22-1.67Z" transform="translate(20.03 20.9)"/><path class="cls-11" d="M106.89,36.57c3.1,0,4.77,1.67,4.77,3.81S110,44.2,106.89,44.2H104v3.49h-2.22V36.57h5.08ZM104,38.4v4h2.86a2.21,2.21,0,0,0,2.46-2,2.21,2.21,0,0,0-2.46-2H104Z" transform="translate(20.03 20.9)"/><path class="cls-11" d="M114.09,47.69V36.57h2.22V44.2h0.08L122,36.57h2.22V47.69H122V40.06h-0.08l-5.56,7.63h-2.22Z" transform="translate(20.03 20.9)"/><path class="cls-11" d="M136.22,36.57V38.4h-3.81v9.29h-2.22V38.4h-3.81V36.57h9.85Z" transform="translate(20.03 20.9)"/><path class="cls-11" d="M138.41,47.69V36.57h2.22V44.2h0.08l5.56-7.62h2.22V47.69h-2.22V40.06h-0.08l-5.56,7.63h-2.22Z" transform="translate(20.03 20.9)"/><path class="cls-11" d="M159.11,36.57h2.3l-0.79,2.86a4.9,4.9,0,0,1-1.25,2.35,2.11,2.11,0,0,1-.73.51v0.08l3.65,5.32h-2.62l-3.26-4.77H154v4.77H151.8V36.57H154V41.1h2.07a2.14,2.14,0,0,0,2.22-1.67Z" transform="translate(20.03 20.9)"/><path class="cls-11" d="M167.88,44.67h-0.94L163,36.57h2.46l3,6.43h0.16l3-6.43h2.46l-5.24,11.12h-2.46Z" transform="translate(20.03 20.9)"/><path class="cls-11" d="M183.86,36.81a5,5,0,0,1,1,.56l-1,1.51a5.61,5.61,0,0,0-.76-0.37,5.1,5.1,0,0,0-1.86-.35,4,4,0,1,0,0,7.94,4.64,4.64,0,0,0,2-.44,4.71,4.71,0,0,0,.79-0.43l1,1.51a5.57,5.57,0,0,1-1,.64,6.56,6.56,0,0,1-2.84.63,5.88,5.88,0,1,1,0-11.75A7.06,7.06,0,0,1,183.86,36.81Z" transform="translate(20.03 20.9)"/></g></svg>