<?xml version="1.0" encoding="UTF-8"?>
<svg width="29px" height="29px" viewBox="0 0 29 29" version="1.1" xmlns="http://www.w3.org/2000/svg" xmlns:xlink="http://www.w3.org/1999/xlink">
    <!-- Generator: sketchtool 43.2 (39069) - http://www.bohemiancoding.com/sketch -->
    <title>AD7B2FA2-E332-47FA-8AB7-A9BCD217EE5C</title>
    <desc>Created with sketchtool.</desc>
    <defs></defs>
    <g id="Experiment-final" stroke="none" stroke-width="1" fill="none" fill-rule="evenodd">
        <g id="003experiment-intermediate" transform="translate(-310.000000, -2741.000000)">
            <g id="Group-7" transform="translate(310.000000, 2734.000000)">
                <g id="cif" transform="translate(0.000000, 7.000000)">
                    <path d="M9.78571429,0 C8.725,0 7.85714286,0.871875 7.85714286,1.9375 L7.85714286,27.0625 C7.85714286,28.128125 8.725,29 9.78571429,29 L27.0714286,29 C28.1321429,29 29,28.128125 29,27.0625 L29,7.75 L21.2857143,0 L9.78571429,0 Z" id="Shape" fill="#FFFFFF" fill-rule="nonzero"></path>
                    <path d="M23.2142857,7.75 L29,7.75 L21.2857143,0 L21.2857143,5.8125 C21.2857143,6.878125 22.1535714,7.75 23.2142857,7.75 Z" id="Shape" fill="#2774B7" fill-rule="nonzero"></path>
                    <polygon id="Shape" fill="#C7E0F0" fill-rule="nonzero" points="29 13.5625 23.2142857 7.75 29 7.75"></polygon>
                    <path d="M25,24 C25,24.55 24.56875,25 24,25 L8,25 L8,12 L24,12 C24.56875,12 25,12.45 25,13 L25,24 Z" id="Shape" fill="#C7E0EF" fill-rule="nonzero"></path>
                    <path d="M25,22 C25,22.55 24.56875,23 24,23 L1,23 C0.43125,23 0,22.55 0,22 L0,11 C0,10.45 0.43125,10 1,10 L24,10 C24.56875,10 25,10.45 25,11 L25,22 Z" id="Shape" fill="#D649D4" fill-rule="nonzero"></path>
                    <text id="CIF" font-family="ProximaNova-Bold, Proxima Nova" font-size="11" font-weight="bold" letter-spacing="0.5" fill="#FFFFFF">
                        <tspan x="3" y="20">CI</tspan>
                        <tspan x="14.571" y="20">F</tspan>
                    </text>
                </g>
            </g>
        </g>
    </g>
</svg>