<svg xmlns="http://www.w3.org/2000/svg" width="29" height="29" viewBox="0 0 29 29">
    <g fill="none" fill-rule="evenodd">
        <path fill="#EEF8FE" fill-rule="nonzero" d="M9.786 0C8.725 0 7.857.872 7.857 1.938v25.125c0 1.065.868 1.937 1.929 1.937H27.07C28.132 29 29 28.128 29 27.062V7.75L21.286 0h-11.5z"/>
        <path fill="#2774B7" fill-rule="nonzero" d="M23.214 7.75H29L21.286 0v5.813c0 1.065.868 1.937 1.928 1.937z"/>
        <path fill="#C7E0F0" fill-rule="nonzero" d="M29 13.563L23.214 7.75H29z"/>
        <path fill="#C7E0EF" fill-rule="nonzero" d="M25 24c0 .55-.431 1-1 1H8V12h16c.569 0 1 .45 1 1v11z"/>
        <path fill="#D649D4" fill-rule="nonzero" d="M25 22c0 .55-.431 1-1 1H1c-.569 0-1-.45-1-1V11c0-.55.431-1 1-1h23c.569 0 1 .45 1 1v11z"/>
        <text fill="#FFF" font-family="ProximaNova-Bold, Proxima Nova" font-size="11" font-weight="bold" letter-spacing=".5">
            <tspan x="3" y="20">CI</tspan> <tspan x="14.571" y="20">F</tspan>
        </text>
    </g>
</svg>
