<svg xmlns="http://www.w3.org/2000/svg" width="29" height="29" viewBox="0 0 29 29">
    <g fill="none" fill-rule="evenodd">
        <path fill="#EEF8FE" fill-rule="nonzero" d="M9.786 0C8.725 0 7.857.872 7.857 1.938v25.125c0 1.065.868 1.937 1.929 1.937H27.07C28.132 29 29 28.128 29 27.062V7.75L21.286 0h-11.5z"/>
        <path fill="#2774B7" fill-rule="nonzero" d="M23.214 7.75H29L21.286 0v5.813c0 1.065.868 1.937 1.928 1.937z"/>
        <path fill="#C7E0F0" fill-rule="nonzero" d="M29 13.563L23.214 7.75H29z"/>
        <path fill="#C7E0EF" fill-rule="nonzero" d="M25 24c0 .55-.431 1-1 1H8V12h16c.569 0 1 .45 1 1v11z"/>
        <path fill="#F15642" fill-rule="nonzero" d="M25 22c0 .55-.431 1-1 1H1c-.569 0-1-.45-1-1V11c0-.55.431-1 1-1h23c.569 0 1 .45 1 1v11z"/>
        <path fill="#FFF" d="M4.288 20H2.726v-7.337h3.432c1.595 0 2.464 1.078 2.464 2.365 0 1.276-.88 2.365-2.464 2.365h-1.87V20zm1.661-3.982c.616 0 1.078-.385 1.078-.99 0-.616-.462-.99-1.078-.99H4.288v1.98h1.661zM12.483 20H9.59v-7.337h2.893c2.299 0 3.894 1.463 3.894 3.674S14.782 20 12.483 20zm0-1.375c1.452 0 2.299-1.045 2.299-2.288 0-1.298-.792-2.299-2.299-2.299h-1.331v4.587h1.331zM19.05 20v-3.036h3.553v-1.375H19.05v-1.551h3.63v-1.375h-5.192V20h1.562z"/>
    </g>
</svg>
