<?xml version="1.0" encoding="UTF-8" standalone="no"?>
<svg width="40px" height="46px" viewBox="0 0 40 46" version="1.1" xmlns="http://www.w3.org/2000/svg" xmlns:xlink="http://www.w3.org/1999/xlink">
    <!-- Generator: Sketch 40.3 (33839) - http://www.bohemiancoding.com/sketch -->
    <title>button-slider-bittersweetleft-hover</title>
    <desc>Created with Sketch.</desc>
    <defs>
        <linearGradient x1="50%" y1="107.207191%" x2="50%" y2="0%" id="linearGradient-1">
            <stop stop-color="#FFFFFF" stop-opacity="0" offset="0%"></stop>
            <stop stop-color="#FFFFFF" stop-opacity="0.5" offset="100%"></stop>
        </linearGradient>
        <linearGradient x1="50%" y1="107.207191%" x2="50%" y2="0%" id="linearGradient-2">
            <stop stop-color="#FFFFFF" stop-opacity="0.5" offset="0%"></stop>
            <stop stop-color="#FFFFFF" stop-opacity="0" offset="100%"></stop>
        </linearGradient>
    </defs>
    <g id="Page-1" stroke="none" stroke-width="1" fill="none" fill-rule="evenodd">
        <g id="button-slider-bittersweetleft-hover" transform="translate(20.000000, 23.000000) rotate(-180.000000) translate(-20.000000, -23.000000) translate(0.000000, 0.000000)">
            <g id="Symbols">
                <g id="Buttons-/-Slider-/-Redleft-hover">
                    <g id="button-sliderRedleft-hover">
                        <g id="Polygon-23">
                            <g id="path-2-link" fill="#E01B22">
                                <polygon id="path-2" points="20 0 40 11.5 40 34.5 20 46 9.1038288e-14 34.5 7.81597009e-14 11.5"></polygon>
                            </g>
                            <g id="path-2-link" fill="url(#linearGradient-2)">
                                <polygon id="path-2" points="20 0 40 11.5 40 34.5 20 46 9.1038288e-14 34.5 7.81597009e-14 11.5"></polygon>
                            </g>
                        </g>
                        <polygon id="Rectangle-122" fill="#FFFFFF" transform="translate(18.500000, 23.000000) scale(-1, 1) translate(-18.500000, -23.000000) " points="19 23 12 13 18 13 25 23 18 33 12 33"></polygon>
                    </g>
                </g>
            </g>
        </g>
    </g>
</svg>