<?xml version="1.0" encoding="UTF-8" standalone="no"?>
<svg width="140px" height="122px" viewBox="0 0 140 122" version="1.1" xmlns="http://www.w3.org/2000/svg" xmlns:xlink="http://www.w3.org/1999/xlink">
    <!-- Generator: Sketch 41 (35326) - http://www.bohemiancoding.com/sketch -->
    <title>hexlight-lipstick</title>
    <desc>Created with Sketch.</desc>
    <defs>
        <polygon id="path-1" points="18 0 35.3205081 10 35.3205081 30 18 40 0.679491924 30 0.679491924 10"></polygon>
        <polygon id="path-3" points="18 0 35.3205081 10 35.3205081 30 18 40 0.679491924 30 0.679491924 10"></polygon>
        <polygon id="path-5" points="18 0 35.3205081 10 35.3205081 30 18 40 0.679491924 30 0.679491924 10"></polygon>
        <polygon id="path-7" points="18 0 35.3205081 10 35.3205081 30 18 40 0.679491924 30 0.679491924 10"></polygon>
        <polygon id="path-9" points="18 0 35.3205081 10 35.3205081 30 18 40 0.679491924 30 0.679491924 10"></polygon>
        <polygon id="path-11" points="18 0 35.3205081 10 35.3205081 30 18 40 0.679491924 30 0.679491924 10"></polygon>
        <polygon id="path-13" points="18 0 35.3205081 10 35.3205081 30 18 40 0.679491924 30 0.679491924 10"></polygon>
        <polygon id="path-15" points="18 0 35.3205081 10 35.3205081 30 18 40 0.679491924 30 0.679491924 10"></polygon>
        <polygon id="path-17" points="18 0 35.3205081 10 35.3205081 30 18 40 0.679491924 30 0.679491924 10"></polygon>
        <polygon id="path-19" points="18 0 35.3205081 10 35.3205081 30 18 40 0.679491924 30 0.679491924 10"></polygon>
        <polygon id="path-21" points="13 0 25.9903811 7.5 25.9903811 22.5 13 30 0.00961894323 22.5 0.00961894323 7.5"></polygon>
        <polygon id="path-23" points="13 0 25.9903811 7.5 25.9903811 22.5 13 30 0.00961894323 22.5 0.00961894323 7.5"></polygon>
        <polygon id="path-25" points="13 0 25.9903811 7.5 25.9903811 22.5 13 30 0.00961894323 22.5 0.00961894323 7.5"></polygon>
        <polygon id="path-27" points="13 0 25.9903811 7.5 25.9903811 22.5 13 30 0.00961894323 22.5 0.00961894323 7.5"></polygon>
        <polygon id="path-29" points="13 0 25.9903811 7.5 25.9903811 22.5 13 30 0.00961894323 22.5 0.00961894323 7.5"></polygon>
    </defs>
    <g id="Page-1" stroke="none" stroke-width="1" fill="none" fill-rule="evenodd">
        <g id="hexlight-lipstick" transform="translate(-1.000000, 0.000000)">
            <g id="Symbols">
                <g id="hexlight-red">
                    <g id="Group">
                        <g id="Group-10-Copy" transform="translate(119.000000, 24.000000) rotate(90.000000) translate(-119.000000, -24.000000) translate(101.000000, 4.000000)">
                            <g id="Mask-Clipped">
                                <mask id="mask-2" fill="white">
                                    <use xlink:href="#path-1"></use>
                                </mask>
                                <g id="path-1"></g>
                                <g id="Mask" mask="url(#mask-2)">
                                    <g id="Clipped">
                                        <mask id="mask-4" fill="white">
                                            <use xlink:href="#path-3"></use>
                                        </mask>
                                        <g id="path-1"></g>
                                        <polygon id="path-1" stroke="#FFFFFF" stroke-width="2" fill="#FF564E" mask="url(#mask-4)" points="18 0 35.3205081 10 35.3205081 30 18 40 0.679491924 30 0.679491924 10"></polygon>
                                    </g>
                                </g>
                            </g>
                            <g id="Polygon-23-Clipped">
                                <mask id="mask-6" fill="white">
                                    <use xlink:href="#path-5"></use>
                                </mask>
                                <g id="path-1"></g>
                                <g id="Polygon-23" mask="url(#mask-6)">
                                    <g transform="translate(0.000000, -19.000000)" id="Clipped">
                                        <g>
                                            <mask id="mask-8" fill="white">
                                                <use xlink:href="#path-7"></use>
                                            </mask>
                                            <g id="path-5"></g>
                                            <polygon id="path-5" stroke="#FFFFFF" stroke-width="2" mask="url(#mask-8)" points="18 0 35.3205081 10 35.3205081 30 18 40 0.679491924 30 0.679491924 10"></polygon>
                                        </g>
                                    </g>
                                </g>
                            </g>
                            <g id="Line-Clipped">
                                <mask id="mask-10" fill="white">
                                    <use xlink:href="#path-9"></use>
                                </mask>
                                <g id="path-1"></g>
                                <path d="M18,20.5 L18,48.5" id="Line" stroke="#FFFFFF" mask="url(#mask-10)"></path>
                            </g>
                        </g>
                        <g id="Group-10-Copy" transform="translate(20.500000, 87.000000) rotate(90.000000) translate(-20.500000, -87.000000) translate(2.500000, 66.500000)">
                            <g id="Mask-Clipped">
                                <mask id="mask-12" fill="white">
                                    <use xlink:href="#path-11"></use>
                                </mask>
                                <g id="path-7"></g>
                                <g id="Mask" mask="url(#mask-12)">
                                    <g id="Clipped">
                                        <mask id="mask-14" fill="white">
                                            <use xlink:href="#path-13"></use>
                                        </mask>
                                        <g id="path-7"></g>
                                        <polygon id="path-7" stroke="#FFFFFF" stroke-width="2" fill="#FF564E" mask="url(#mask-14)" points="18 0 35.3205081 10 35.3205081 30 18 40 0.679491924 30 0.679491924 10"></polygon>
                                    </g>
                                </g>
                            </g>
                            <g id="Polygon-23-Clipped">
                                <mask id="mask-16" fill="white">
                                    <use xlink:href="#path-15"></use>
                                </mask>
                                <g id="path-7"></g>
                                <g id="Polygon-23" mask="url(#mask-16)">
                                    <g transform="translate(0.000000, -19.000000)" id="Clipped">
                                        <g>
                                            <mask id="mask-18" fill="white">
                                                <use xlink:href="#path-17"></use>
                                            </mask>
                                            <g id="path-11"></g>
                                            <polygon id="path-11" stroke="#FFFFFF" stroke-width="2" mask="url(#mask-18)" points="18 0 35.3205081 10 35.3205081 30 18 40 0.679491924 30 0.679491924 10"></polygon>
                                        </g>
                                    </g>
                                </g>
                            </g>
                            <g id="Line-Clipped">
                                <mask id="mask-20" fill="white">
                                    <use xlink:href="#path-19"></use>
                                </mask>
                                <g id="path-7"></g>
                                <path d="M18,20.5 L18,39.5065778" id="Line" stroke="#FFFFFF"></path>
                            </g>
                        </g>
                        <g id="Group-10-Copy-3" transform="translate(116.000000, 100.000000) rotate(90.000000) translate(-116.000000, -100.000000) translate(103.000000, 78.000000)">
                            <g id="Mask-Clipped">
                                <mask id="mask-22" fill="white">
                                    <use xlink:href="#path-21"></use>
                                </mask>
                                <g id="path-13"></g>
                                <g id="Mask" mask="url(#mask-22)">
                                    <g id="Clipped">
                                        <mask id="mask-24" fill="white">
                                            <use xlink:href="#path-23"></use>
                                        </mask>
                                        <g id="path-13"></g>
                                        <polygon id="path-13" stroke="#FFFFFF" stroke-width="2" fill="#FF564E" mask="url(#mask-24)" points="13 0 25.9903811 7.5 25.9903811 22.5 13 30 0.00961894323 22.5 0.00961894323 7.5"></polygon>
                                    </g>
                                </g>
                            </g>
                            <g id="Polygon-23-Clipped">
                                <mask id="mask-26" fill="white">
                                    <use xlink:href="#path-25"></use>
                                </mask>
                                <g id="path-13"></g>
                                <g id="Polygon-23" mask="url(#mask-26)">
                                    <g transform="translate(0.000000, -14.000000)" id="Clipped">
                                        <g>
                                            <mask id="mask-28" fill="white">
                                                <use xlink:href="#path-27"></use>
                                            </mask>
                                            <g id="path-17"></g>
                                            <polygon id="path-17" stroke="#FFFFFF" stroke-width="2" mask="url(#mask-28)" points="13 0 25.9903811 7.5 25.9903811 22.5 13 30 0.00961894323 22.5 0.00961894323 7.5"></polygon>
                                        </g>
                                    </g>
                                </g>
                            </g>
                            <g id="Line-Clipped">
                                <mask id="mask-30" fill="white">
                                    <use xlink:href="#path-29"></use>
                                </mask>
                                <g id="path-13"></g>
                                <path d="M13,15.5 L13,43.5" id="Line" stroke="#FFFFFF"></path>
                            </g>
                        </g>
                        <polygon id="Polygon-23-Copy-2" fill="#FFFFFF" transform="translate(71.000000, 60.621778) rotate(90.000000) translate(-71.000000, -60.621778) " points="71 -9.378222 131.621778 25.621778 131.621778 95.621778 71 130.621778 10.3782217 95.621778 10.3782217 25.621778"></polygon>
                    </g>
                </g>
            </g>
        </g>
    </g>
</svg>