<?xml version="1.0" encoding="UTF-8" standalone="no"?>
<svg width="200px" height="200px" viewBox="0 0 200 200" version="1.1" xmlns="http://www.w3.org/2000/svg" xmlns:xlink="http://www.w3.org/1999/xlink">
    <!-- Generator: Sketch 41 (35326) - http://www.bohemiancoding.com/sketch -->
    <title>teaser-bg04</title>
    <desc>Created with Sketch.</desc>
    <defs>
        <polygon id="path-1" points="26 0 51.9807621 15 51.9807621 45 26 60 0.0192378865 45 0.0192378865 15"></polygon>
        <mask id="mask-2" maskContentUnits="userSpaceOnUse" maskUnits="objectBoundingBox" x="0" y="0" width="51.9615242" height="60" fill="white">
            <use xlink:href="#path-1"></use>
        </mask>
        <mask id="mask-4" maskContentUnits="userSpaceOnUse" maskUnits="objectBoundingBox" x="0" y="0" width="51.9615242" height="60" fill="white">
            <use xlink:href="#path-1"></use>
        </mask>
        <polygon id="path-5" points="26 -29 51.9807621 -14 51.9807621 16 26 31 0.0192378865 16 0.0192378865 -14"></polygon>
        <mask id="mask-6" maskContentUnits="userSpaceOnUse" maskUnits="objectBoundingBox" x="0" y="0" width="51.9615242" height="60" fill="white">
            <use xlink:href="#path-5"></use>
        </mask>
        <polygon id="path-7" points="100 31 160.621778 66 160.621778 136 100 171 39.3782217 136 39.3782217 66"></polygon>
        <mask id="mask-8" maskContentUnits="userSpaceOnUse" maskUnits="objectBoundingBox" x="0" y="0" width="121.243557" height="140" fill="white">
            <use xlink:href="#path-7"></use>
        </mask>
        <polygon id="path-9" points="18 0 35.3205081 10 35.3205081 30 18 40 0.679491924 30 0.679491924 10"></polygon>
        <mask id="mask-10" maskContentUnits="userSpaceOnUse" maskUnits="objectBoundingBox" x="0" y="0" width="34.6410162" height="40" fill="white">
            <use xlink:href="#path-9"></use>
        </mask>
        <mask id="mask-12" maskContentUnits="userSpaceOnUse" maskUnits="objectBoundingBox" x="0" y="0" width="34.6410162" height="40" fill="white">
            <use xlink:href="#path-9"></use>
        </mask>
        <polygon id="path-13" points="18 -19 35.3205081 -9 35.3205081 11 18 21 0.679491924 11 0.679491924 -9"></polygon>
        <mask id="mask-14" maskContentUnits="userSpaceOnUse" maskUnits="objectBoundingBox" x="0" y="0" width="34.6410162" height="40" fill="white">
            <use xlink:href="#path-13"></use>
        </mask>
        <polygon id="path-15" points="13 0 25.9903811 7.5 25.9903811 22.5 13 30 0.00961894323 22.5 0.00961894323 7.5"></polygon>
        <mask id="mask-16" maskContentUnits="userSpaceOnUse" maskUnits="objectBoundingBox" x="0" y="0" width="25.9807621" height="30" fill="white">
            <use xlink:href="#path-15"></use>
        </mask>
        <mask id="mask-18" maskContentUnits="userSpaceOnUse" maskUnits="objectBoundingBox" x="0" y="0" width="25.9807621" height="30" fill="white">
            <use xlink:href="#path-15"></use>
        </mask>
        <polygon id="path-19" points="13 -14 25.9903811 -6.5 25.9903811 8.5 13 16 0.00961894323 8.5 0.00961894323 -6.5"></polygon>
        <mask id="mask-20" maskContentUnits="userSpaceOnUse" maskUnits="objectBoundingBox" x="0" y="0" width="25.9807621" height="30" fill="white">
            <use xlink:href="#path-19"></use>
        </mask>
    </defs>
    <g id="Page-1" stroke="none" stroke-width="1" fill="none" fill-rule="evenodd">
        <g id="teaser-bg04">
            <g id="Group-10" transform="translate(164.000000, 62.000000) rotate(90.000000) translate(-164.000000, -62.000000) translate(138.000000, 32.000000)">
                <mask id="mask-3" fill="white">
                    <use xlink:href="#path-1"></use>
                </mask>
                <g id="Mask" stroke="#B7C6DC" mask="url(#mask-2)" stroke-width="2" fill="#FFFFFF">
                    <use mask="url(#mask-4)" xlink:href="#path-1"></use>
                </g>
                <g id="Polygon-23" mask="url(#mask-3)" stroke-width="2" stroke="#B7C6DC">
                    <use mask="url(#mask-6)" xlink:href="#path-5"></use>
                </g>
                <path d="M26,30.5 L26,58.5" id="Line" stroke="#B7C6DC" stroke-linecap="square"></path>
            </g>
            <use id="Polygon-23-Copy-3" stroke="#B6C5DC" mask="url(#mask-8)" stroke-width="2" fill="#EDEEEE" transform="translate(100.000000, 101.000000) rotate(90.000000) translate(-100.000000, -101.000000) " xlink:href="#path-7"></use>
            <g id="Group-10-Copy-7" transform="translate(42.000000, 63.000000) rotate(90.000000) translate(-42.000000, -63.000000) translate(24.000000, 43.000000)">
                <mask id="mask-11" fill="white">
                    <use xlink:href="#path-9"></use>
                </mask>
                <g id="Mask" stroke="#B6C5DC" mask="url(#mask-10)" stroke-width="2" fill="#FFFFFF">
                    <use mask="url(#mask-12)" xlink:href="#path-9"></use>
                </g>
                <g id="Polygon-23" mask="url(#mask-11)" stroke-width="2" stroke="#B6C5DC">
                    <use mask="url(#mask-14)" xlink:href="#path-13"></use>
                </g>
                <path d="M18,20.5 L18,38.5069431" id="Line" stroke="#B6C5DC" stroke-linecap="square"></path>
            </g>
            <g id="Group-10-Copy-8" transform="translate(145.000000, 155.000000) rotate(90.000000) translate(-145.000000, -155.000000) translate(132.000000, 140.000000)">
                <mask id="mask-17" fill="white">
                    <use xlink:href="#path-15"></use>
                </mask>
                <g id="Mask" stroke="#B6C5DC" mask="url(#mask-16)" stroke-width="2" fill="#FFFFFF">
                    <use mask="url(#mask-18)" xlink:href="#path-15"></use>
                </g>
                <g id="Polygon-23" mask="url(#mask-17)" stroke-width="2" stroke="#B6C5DC">
                    <use mask="url(#mask-20)" xlink:href="#path-19"></use>
                </g>
                <path d="M13,15.5 L13,28.5096118" id="Line" stroke="#B6C5DC" stroke-linecap="square"></path>
            </g>
        </g>
    </g>
</svg>