<?xml version="1.0" encoding="UTF-8"?>
<svg width="97px" height="57px" viewBox="0 0 97 57" version="1.1" xmlns="http://www.w3.org/2000/svg" xmlns:xlink="http://www.w3.org/1999/xlink">
    <!-- Generator: sketchtool 40.3 (33839) - http://www.bohemiancoding.com/sketch -->
    <title>879167FC-A0EE-4EA9-A92C-B4F4EA36810D</title>
    <desc>Created with sketchtool.</desc>
    <defs></defs>
    <g id="Changes" stroke="none" stroke-width="1" fill="none" fill-rule="evenodd">
        <g id="f-vuz" transform="translate(-992.000000, -1036.000000)" fill="#FF9F00">
            <g id="3" transform="translate(900.000000, 965.000000)">
                <g id="icon-experts" transform="translate(92.000000, 71.000000)">
                    <polygon id="Page-1-Copy-2" transform="translate(86.429276, 29.355958) rotate(-360.000000) translate(-86.429276, -29.355958) " points="75.9292763 2.17250455 91.627772 29.360863 75.9332004 56.539411 81.2327426 56.539411 96.9292763 29.3353561 81.2307805 2.17250455"></polygon>
                    <g id="scientist-with-task" transform="translate(28.000000, 0.000000)">
                        <path d="M21.0750677,27.6695043 C24.446704,27.6695043 32.3738576,23.6163248 32.3738576,13.9044131 C32.3738576,6.30215385 31.3466441,0.139461538 21.0750677,0.139461538 C10.8037708,0.13960114 9.77627778,6.30229345 9.77627778,13.9045527 C9.77627778,23.6163248 17.7034314,27.6695043 21.0750677,27.6695043 L21.0750677,27.6695043 Z M11.4648212,11.6071368 C12.2586406,10.0738974 13.9752752,8.30221937 17.6673741,8.38081481 C17.6673741,8.38081481 19.8681267,13.7127407 30.6717578,11.318302 C30.7152222,12.1700085 30.7290582,13.0390256 30.7290582,13.9045527 C30.7290582,18.6516895 28.6304679,21.5930855 26.8700894,23.224604 C24.6520069,25.28051 22.1892101,26.0266781 21.0750677,26.0266781 C19.9609253,26.0266781 17.4981285,25.28051 15.280046,23.224604 C13.5195278,21.5930855 11.4210773,18.6516895 11.4210773,13.9045527 C11.4210773,13.1366068 11.4321181,12.3660085 11.4648212,11.6071368 L11.4648212,11.6071368 Z" id="Shape"></path>
                        <path d="M18.901987,17.7335328 C20.1720981,17.0714046 20.6107951,14.8605413 20.6295226,14.7618433 C20.6300816,14.7603077 20.6699123,14.6135869 21.0733906,14.6135869 L21.1055347,14.6133077 C21.4167734,14.6133077 21.5139045,14.7154957 21.5236875,14.7845983 C21.5425547,14.8779915 21.9978828,17.0814558 23.2477292,17.7335328 C24.0897648,18.1724387 25.0960148,18.2644359 25.7920043,18.2644359 C26.6846319,18.2644359 27.581033,18.1083618 28.0229444,17.8757863 C28.9760868,17.3744786 29.0607795,17.0117949 29.4073767,14.9109373 C29.4205139,14.8317835 29.442875,14.7649145 29.4740408,14.7124245 C29.4838238,14.6959516 29.5010139,14.677245 29.5244931,14.6512792 C29.6156146,14.5531396 29.7532752,14.404604 29.7450295,14.0604872 C29.7439115,14.0170712 29.7455885,13.9423846 29.7474054,13.8590427 L29.7479644,13.8390798 C29.7511788,13.6927778 29.754533,13.528886 29.749362,13.4352137 C29.7190347,12.9195271 29.2713932,12.711661 29.0445677,12.6749459 C28.1891155,12.4993276 27.2236745,12.4102621 26.1749384,12.4102621 C25.7226849,12.4102621 25.2553377,12.4272934 24.7864531,12.4609373 L24.704276,12.4668006 C23.7486181,12.5342279 23.2221536,12.5715014 22.5819271,12.8578234 C22.4525122,12.9157578 22.3087023,12.9854188 22.1538516,13.0647123 C21.9341536,13.1779288 21.6071224,13.3044074 21.4401128,13.3411225 C21.1586424,13.4031054 20.9912135,13.4035242 20.709184,13.3409829 C20.5427335,13.3042678 20.2159818,13.1777892 19.9954453,13.0647123 C19.8404549,12.9851396 19.6965052,12.9154786 19.5676493,12.8578234 C18.9275625,12.5715014 18.4009583,12.5343675 17.4440425,12.4665214 L17.3635425,12.4609373 C16.895217,12.4275726 16.4284288,12.4105413 15.9760356,12.4105413 C14.9259019,12.4105413 13.962138,12.499188 13.1167483,12.6729915 C12.8822361,12.7112422 12.4311007,12.9200855 12.401053,13.4347949 C12.3950434,13.5294444 12.3988168,13.7011538 12.402171,13.8383818 L12.4032891,13.8986895 C12.4046866,13.9659772 12.4058047,14.0247493 12.4049661,14.0606268 C12.396441,14.405302 12.5341016,14.5535584 12.6285773,14.6556068 C12.6495408,14.6785014 12.6663116,14.6967892 12.6760946,14.7131225 C12.7069809,14.7646353 12.729342,14.8315043 12.7424792,14.9113561 C13.0893559,17.0119345 13.1740486,17.3747578 14.1266319,17.8759259 C14.5679844,18.1085014 15.4646649,18.2645755 16.3581311,18.2645755 C17.0538411,18.2644359 18.0599514,18.1724387 18.901987,17.7335328 L18.901987,17.7335328 Z M22.5553733,14.0448519 C22.5782934,13.9887322 22.8449497,13.4932877 25.1960807,13.3564786 C25.6024939,13.332886 25.9461562,13.3214387 26.2464939,13.3214387 C27.5558767,13.3214387 27.963967,13.5436838 28.1984792,13.9019003 C28.3385156,14.116188 28.4370443,14.5874815 28.4381623,14.8765954 C28.4409575,15.5320228 28.3130799,16.6957379 27.4254835,17.1257094 C27.0053741,17.3288291 26.3715764,17.4501425 25.7298125,17.4501425 C24.5091753,17.4501425 23.5387031,17.0444615 23.1342465,16.3647436 C22.2613247,14.9004672 22.5528576,14.0516923 22.5553733,14.0448519 L22.5553733,14.0448519 Z M13.7116936,14.8770142 C13.7128116,14.5872023 13.8116198,14.11549 13.9510972,13.9019003 C14.1856094,13.5435442 14.5939792,13.3212991 15.9030825,13.3212991 C16.2038394,13.3212991 16.5472222,13.3327464 16.9532161,13.3564786 C19.2562708,13.4904957 19.5627578,13.967792 19.5988151,14.0565783 C19.60175,14.065094 19.8753941,14.9223846 19.0160286,16.3650228 C18.6112925,17.0447407 17.6408203,17.4504217 16.4207422,17.4504217 C15.7786988,17.4504217 15.1446215,17.3291083 14.7245122,17.1259886 C13.8371953,16.6964359 13.7088984,15.5325812 13.7116936,14.8770142 L13.7116936,14.8770142 Z" id="Shape"></path>
                        <path d="M46.729691,46.8067265 L41.6643403,36.3229601 L41.6643403,30.3684131 L41.8676866,30.3684131 C42.3232943,30.3684131 42.6925321,29.9994473 42.6925321,29.5444872 L42.6925321,27.2178946 C42.6925321,26.7626553 42.3232943,26.3938291 41.8676866,26.3938291 L34.1034896,26.3938291 C33.6478819,26.3938291 33.2786441,26.7627949 33.2786441,27.2178946 L33.2786441,29.5444872 C33.2786441,29.9995869 33.6480217,30.3684131 34.1034896,30.3684131 L34.3068359,30.3684131 L34.3068359,36.3229601 L29.2417648,46.8067265 C29.1006102,47.0987721 29.1200365,47.4426097 29.292217,47.7169259 C29.4646771,47.9915214 29.7664123,48.1580655 30.0906484,48.1580655 L45.880388,48.1580655 C46.2046241,48.1580655 46.5062196,47.9915214 46.679099,47.7169259 C46.8512795,47.4426097 46.870566,47.0987721 46.729691,46.8067265 L46.729691,46.8067265 Z M36.0989392,36.9476752 C36.160572,36.8200798 36.1925764,36.6801994 36.1925764,36.5382251 L36.1925764,30.3684131 L39.7787396,30.3684131 L39.7787396,36.5382251 C39.7787396,36.6801994 39.8107439,36.8200798 39.8723767,36.9476752 L40.2480434,37.7246952 L35.7234123,37.7246952 L36.0989392,36.9476752 L36.0989392,36.9476752 Z M37.4312422,43.8924131 C37.1247552,43.8924131 36.8765469,43.6443419 36.8765469,43.3384758 C36.8765469,43.0324701 37.1246155,42.7843989 37.4312422,42.7843989 C37.7371701,42.7843989 37.985658,43.0323305 37.985658,43.3384758 C37.985658,43.6443419 37.7373099,43.8924131 37.4312422,43.8924131 L37.4312422,43.8924131 Z M37.4312422,41.0671652 C37.0021884,41.0671652 36.6546128,40.7199772 36.6546128,40.2915413 C36.6546128,39.863245 37.0020486,39.5159174 37.4312422,39.5159174 C37.859737,39.5159174 38.207592,39.8631054 38.207592,40.2915413 C38.207592,40.7199772 37.8598767,41.0671652 37.4312422,41.0671652 L37.4312422,41.0671652 Z M41.0359931,43.6708661 C40.4843724,43.6708661 40.0377092,43.2242821 40.0377092,42.6735556 C40.0377092,42.1226895 40.4842326,41.6763846 41.0359931,41.6763846 C41.5873342,41.6763846 42.0339974,42.1226895 42.0339974,42.6735556 C42.0339974,43.2242821 41.5873342,43.6708661 41.0359931,43.6708661 L41.0359931,43.6708661 Z" id="Shape"></path>
                        <path d="M27.8573325,46.1392934 L32.7695095,35.9718632 L32.7695095,31.4909459 C32.1491285,31.065302 31.7413177,30.3515214 31.7413177,29.5444872 L31.7413177,28.4187436 C30.3598203,27.6695043 29.0578446,26.9747094 28.1815686,26.5070456 L28.1386632,26.484151 C27.8618047,26.3363134 27.5234531,26.3659088 27.2765026,26.5596752 C26.0069505,27.5551709 24.6163689,28.2262336 23.1433307,28.5537379 C22.8907899,28.6098575 22.6815738,28.785755 22.5830451,29.0247521 L21.074928,32.6831396 L19.5668108,29.0247521 C19.4682821,28.785755 19.2592057,28.6099972 19.0065252,28.5537379 C17.533487,28.226094 16.1429054,27.5551709 14.8733533,26.5596752 C14.626263,26.3659088 14.2879115,26.3363134 14.011053,26.484151 C11.6157587,27.7627578 5.87007118,30.8540855 4.25196528,31.9435328 C1.50979427,33.7887806 0.310959201,40.4664615 0.0983888889,41.7863903 C0.0774253472,41.9173362 0.0895842014,42.0512137 0.133747396,42.1761567 C0.231996528,42.4528462 2.74846007,48.9535128 21.074928,48.9535128 C23.7054332,48.9535128 26.0089071,48.8190769 28.0275564,48.5888746 C28.0149783,48.5701681 28.0018411,48.5520199 27.989822,48.5328946 C27.5337951,47.8062707 27.4841814,46.9114274 27.8573325,46.1392934 L27.8573325,46.1392934 Z M14.4257118,38.6228889 L7.25142882,38.6228889 L7.25142882,37.1138006 L11.8562804,37.1138006 L11.8562804,35.6587379 L12.0397812,35.6587379 L12.0397812,35.5487322 C12.0397812,35.2853048 12.2540286,35.0721339 12.5160729,35.0721339 C12.7797943,35.0721339 12.9937622,35.2853048 12.9937622,35.5487322 L12.9937622,35.6587379 L13.177263,35.6587379 L13.177263,35.774886 C13.1941736,35.7733504 13.2096866,35.7722336 13.2268767,35.7722336 C13.549855,35.7722336 13.8113403,36.0339858 13.8113403,36.3557664 L13.8113403,37.1138006 L14.4257118,37.1138006 L14.4257118,38.6228889 L14.4257118,38.6228889 Z" id="Shape"></path>
                        <path d="M13.2692884,36.1312877 C13.2374035,36.1312877 13.2086294,36.1339402 13.177263,36.137151 L13.177263,37.113661 L13.6876797,37.113661 L13.6876797,36.3556268 C13.6874205,36.231661 13.4981852,36.1312877 13.2692884,36.1312877 L13.2692884,36.1312877 Z" id="Shape"></path>
                    </g>
                    <polygon id="Page-1-Copy-4" transform="translate(11.429276, 29.355958) scale(-1, 1) rotate(-360.000000) translate(-11.429276, -29.355958) " points="0.929276272 2.17250455 16.627772 29.360863 0.933200406 56.539411 6.23274259 56.539411 21.9292763 29.3353561 6.23078052 2.17250455"></polygon>
                </g>
            </g>
        </g>
    </g>
</svg>