<?xml version="1.0" encoding="UTF-8"?>
<svg width="97px" height="57px" viewBox="0 0 97 57" version="1.1" xmlns="http://www.w3.org/2000/svg" xmlns:xlink="http://www.w3.org/1999/xlink">
    <!-- Generator: sketchtool 40.3 (33839) - http://www.bohemiancoding.com/sketch -->
    <title>D72BF26A-0B8A-40EE-8367-E0420839A553</title>
    <desc>Created with sketchtool.</desc>
    <defs></defs>
    <g id="Changes" stroke="none" stroke-width="1" fill="none" fill-rule="evenodd">
        <g id="f-vuz" transform="translate(-351.000000, -1036.000000)" fill="#1BAD0F">
            <g id="1" transform="translate(260.000000, 965.000000)">
                <g id="icon-tutor" transform="translate(91.000000, 71.000000)">
                    <polygon id="Page-1-Copy-2" transform="translate(86.429276, 29.355958) rotate(-360.000000) translate(-86.429276, -29.355958) " points="75.9292763 2.17250455 91.627772 29.360863 75.9332004 56.539411 81.2327426 56.539411 96.9292763 29.3353561 81.2307805 2.17250455"></polygon>
                    <polygon id="Page-1-Copy-4" transform="translate(11.429276, 29.355958) scale(-1, 1) rotate(-360.000000) translate(-11.429276, -29.355958) " points="0.929276272 2.17250455 16.627772 29.360863 0.933200406 56.539411 6.23274259 56.539411 21.9292763 29.3353561 6.23078052 2.17250455"></polygon>
                    <g id="softtware-engineer" transform="translate(29.000000, 0.000000)">
                        <path d="M21.0088821,27.04512 C24.36915,27.04512 32.269575,23.0633143 32.269575,13.5224229 C32.269575,6.05417143 31.245825,0 21.0088821,0 C10.7722179,0 9.74818929,6.05417143 9.74818929,13.52256 C9.74832857,23.0633143 17.6486143,27.04512 21.0088821,27.04512 L21.0088821,27.04512 Z M11.4311786,11.2656 C12.2223214,9.75936 13.9331679,8.01888 17.6128179,8.09609143 C17.6128179,8.09609143 19.80615,13.3341257 30.5733536,10.9818514 C30.6168107,11.81856 30.6304607,12.6722743 30.6304607,13.52256 C30.6304607,18.1861029 28.5389464,21.0757029 26.7845036,22.6784914 C24.5739,24.6981943 22.1194071,25.4312229 21.0090214,25.4312229 C19.8986357,25.4312229 17.4441429,24.6981943 15.2335393,22.6784914 C13.4789571,21.0757029 11.3875821,18.1861029 11.3875821,13.52256 C11.3874429,12.7681371 11.3984464,12.0111086 11.4311786,11.2656 L11.4311786,11.2656 Z" id="Shape"></path>
                        <path d="M41.9146929,40.9134171 C41.3397214,37.3937829 40.15635,32.85984 37.7823643,31.2486857 C36.1610786,30.1479771 30.5049643,27.1726629 28.0896107,25.9021714 L28.0488,25.8807771 C27.7727357,25.7355429 27.4356643,25.7646171 27.1895464,25.9549714 C25.924275,26.9329371 24.5383821,27.5920457 23.0703107,27.91392 C22.8186214,27.9690514 22.6101107,28.1418514 22.5119143,28.37664 L21.0088821,31.9706057 L19.50585,28.37664 C19.4076536,28.1418514 19.1991429,27.9691886 18.9474536,27.91392 C17.4793821,27.5920457 16.0934893,26.9329371 14.8282179,25.9549714 C14.5818214,25.7646171 14.24475,25.7355429 13.968825,25.8807771 C11.5823036,27.1364571 5.85710357,30.1725257 4.24250357,31.2440229 C1.50971786,33.05664 0.314925,39.6168686 0.103071429,40.9135543 C0.0821785714,41.0421943 0.0942964286,41.1737143 0.138310714,41.2964571 C0.236228571,41.5682743 2.74420714,47.9544686 21.0088821,47.9544686 C39.2735571,47.9544686 41.7815357,41.5684114 41.8794536,41.2964571 C41.9236071,41.1735771 41.935725,41.04192 41.9146929,40.9134171 L41.9146929,40.9134171 Z" id="Shape"></path>
                        <path d="M18.8431286,17.2841143 C20.1090964,16.6336457 20.546175,14.4617143 20.5649786,14.3647543 C20.5653964,14.3632457 20.6050929,14.2191086 21.0072107,14.2191086 L21.0392464,14.2188343 C21.3494357,14.2188343 21.4462393,14.3192229 21.4559893,14.3871086 C21.4747929,14.4788571 21.928725,16.64352 23.1743571,17.2841143 C24.0134143,17.7152914 25.0164107,17.8056686 25.7099143,17.8056686 C26.5995321,17.8056686 27.49305,17.6523429 27.9334714,17.4238629 C28.8834,16.9313829 28.9678071,16.5750857 29.3130964,14.5112229 C29.3261893,14.4334629 29.348475,14.3677714 29.379675,14.3162057 C29.389425,14.3000229 29.4064179,14.2816457 29.4299571,14.2561371 C29.5207714,14.1597257 29.6579679,14.0138057 29.6496107,13.6757486 C29.6486357,13.6330971 29.6503071,13.5597257 29.6522571,13.4778514 L29.652675,13.45824 C29.6560179,13.3145143 29.6593607,13.1535086 29.6540679,13.0614857 C29.6239821,12.55488 29.1777107,12.3506743 28.95165,12.3146057 C28.0992214,12.14208 27.1370357,12.0545829 26.0918357,12.0545829 C25.6409679,12.0545829 25.1751964,12.0713143 24.7078929,12.1043657 L24.6259929,12.1101257 C23.6734179,12.1763657 23.1485893,12.2129829 22.5108,12.4942629 C22.3816821,12.5511771 22.2383571,12.6196114 22.0841679,12.6975086 C21.8650714,12.8087314 21.5392821,12.9329829 21.3726964,12.9690514 C21.0916179,13.03008 20.92545,13.0302171 20.6442321,12.9689143 C20.4783429,12.9328457 20.1526929,12.8085943 19.9330393,12.6975086 C19.7785714,12.6193371 19.6351071,12.5509029 19.5066857,12.4942629 C18.8688964,12.2129829 18.3440679,12.1765029 17.3902393,12.1098514 L17.3100107,12.1043657 C16.8432643,12.0715886 16.37805,12.0548571 15.9271821,12.0548571 C14.8807286,12.0548571 13.9202143,12.1419429 13.0775357,12.3126857 C12.8439536,12.3502629 12.3943393,12.5554286 12.3642536,13.0610743 C12.3584036,13.1540571 12.3621643,13.3227429 12.3653679,13.4575543 L12.3664821,13.5168 C12.367875,13.5829029 12.3689893,13.64064 12.3681536,13.6758857 C12.3597964,14.0144914 12.4968536,14.1601371 12.59115,14.2603886 C12.6120429,14.28288 12.6287571,14.3008457 12.6383679,14.3168914 C12.66915,14.3674971 12.6914357,14.4331886 12.7046679,14.5116343 C13.0502357,16.5752229 13.1346429,16.9316571 14.0841536,17.424 C14.5240179,17.65248 15.417675,17.8058057 16.3079893,17.8058057 C17.001075,17.8056686 18.0037929,17.7152914 18.8431286,17.2841143 L18.8431286,17.2841143 Z M22.4841964,13.6603886 C22.5069,13.6052571 22.7726571,13.1185371 25.116,12.9841371 C25.5210429,12.96096 25.8634071,12.9497143 26.1627321,12.9497143 C27.4677,12.9497143 27.8745536,13.1680457 28.1081357,13.5199543 C28.2477,13.7304686 28.3460357,14.1934629 28.3470107,14.4774857 C28.3499357,15.1213714 28.2226286,16.2645943 27.3377464,16.6869943 C26.9190536,16.8865371 26.2873929,17.0057143 25.6477929,17.0057143 C24.4312714,17.0057143 23.4642107,16.6071771 23.0609786,15.9394286 C22.1911393,14.5009371 22.4818286,13.6671086 22.4841964,13.6603886 L22.4841964,13.6603886 Z M13.6701964,14.4778971 C13.67145,14.1931886 13.7697857,13.7297829 13.9089321,13.5199543 C14.1426536,13.1679086 14.5495071,12.9495771 15.8543357,12.9495771 C16.1539393,12.9495771 16.4963036,12.9608229 16.9009286,12.9841371 C19.1960786,13.1157943 19.5016714,13.5846857 19.5376071,13.6719086 C19.5405321,13.6802743 19.8132536,14.5224686 18.9567857,15.9397029 C18.553275,16.6074514 17.5862143,17.0059886 16.3701107,17.0059886 C15.7302321,17.0059886 15.0984321,16.8868114 14.6797393,16.6872686 C13.795275,16.26528 13.66755,15.12192 13.6701964,14.4778971 L13.6701964,14.4778971 Z" id="Shape"></path>
                    </g>
                </g>
            </g>
        </g>
    </g>
</svg>