<?xml version="1.0" encoding="UTF-8"?>
<svg width="97px" height="55px" viewBox="0 0 97 55" version="1.1" xmlns="http://www.w3.org/2000/svg" xmlns:xlink="http://www.w3.org/1999/xlink">
    <!-- Generator: sketchtool 40.3 (33839) - http://www.bohemiancoding.com/sketch -->
    <title>3E78AD65-D90C-4642-8FCB-0F1AD9D9DD8C</title>
    <desc>Created with sketchtool.</desc>
    <defs></defs>
    <g id="Changes" stroke="none" stroke-width="1" fill="none" fill-rule="evenodd">
        <g id="f-vuz" transform="translate(-672.000000, -1038.000000)" fill="#00AFCF">
            <g id="-" transform="translate(580.000000, 965.000000)">
                <g id="icon" transform="translate(92.000000, 73.000000)">
                    <g id="icon-cases">
                        <polygon id="Page-1-Copy-2" transform="translate(86.429276, 27.355958) rotate(-360.000000) translate(-86.429276, -27.355958) " points="75.9292763 0.172504552 91.627772 27.360863 75.9332004 54.539411 81.2327426 54.539411 96.9292763 27.3353561 81.2307805 0.172504552"></polygon>
                        <path d="M59.8460597,34.3125483 C60.4157463,34.1943807 61.0057164,34.1317585 61.610194,34.1317585 C62.3675373,34.1317585 63.1020448,34.2300312 63.8024328,34.4130909 L63.8024328,6.90433807 C63.8024328,6.38894034 63.3818507,5.97088068 62.863209,5.97088068 L54.9769254,5.97088068 L54.9769254,8.29404261 L59.8460597,8.29404261 L59.8460597,34.3125483 L59.8460597,34.3125483 Z" id="Shape"></path>
                        <path d="M37.0102388,45.2373778 L37.0102388,8.29404261 L41.8796418,8.29404261 L41.8796418,5.97088068 L33.9930896,5.97088068 C33.4745821,5.97088068 33.0541343,6.38894034 33.0541343,6.90433807 L33.0541343,47.2945625 C33.0541343,47.8100937 33.4745821,48.2280199 33.9930896,48.2280199 L55.013597,48.2280199 C54.2776119,47.3603892 53.7104776,46.3470852 53.3652537,45.2373778 L37.0102388,45.2373778 L37.0102388,45.2373778 Z" id="Shape"></path>
                        <path d="M43.6263134,9.02588068 L53.2299851,9.02588068 C53.4527015,9.02588068 53.6335075,8.84629261 53.6335075,8.62477841 L53.6335075,4.65221023 C53.6335075,4.43069602 53.4527015,4.25110795 53.2299851,4.25110795 L51.7107313,4.25110795 C51.4705522,3.52487784 50.7838657,3 49.972791,3 L46.8832388,3 C46.0722985,3 45.3856119,3.52487784 45.1452985,4.25110795 L43.6261791,4.25110795 C43.403194,4.25110795 43.2226567,4.43069602 43.2226567,4.65221023 L43.2226567,8.62477841 C43.2229254,8.84629261 43.4033284,9.02588068 43.6263134,9.02588068 L43.6263134,9.02588068 Z" id="Shape"></path>
                        <path d="M39.9207313,13.1685568 L39.9207313,15.3049205 C39.9207313,15.4893153 40.0710448,15.6387273 40.2565522,15.6387273 L42.405806,15.6387273 C42.5913134,15.6387273 42.7416269,15.4893153 42.7416269,15.3049205 L42.7416269,13.1685568 C42.7416269,12.9841619 42.5913134,12.83475 42.405806,12.83475 L40.2565522,12.83475 C40.0711791,12.83475 39.9207313,12.9841619 39.9207313,13.1685568 L39.9207313,13.1685568 Z" id="Shape"></path>
                        <path d="M56.9357015,13.1685568 C56.9357015,12.9841619 56.7853881,12.83475 56.5998806,12.83475 L45.8087463,12.83475 C45.6232388,12.83475 45.4729254,12.9841619 45.4729254,13.1685568 L45.4729254,15.3049205 C45.4729254,15.4893153 45.6232388,15.6387273 45.8087463,15.6387273 L56.5998806,15.6387273 C56.7853881,15.6387273 56.9357015,15.4893153 56.9357015,15.3049205 L56.9357015,13.1685568 L56.9357015,13.1685568 Z" id="Shape"></path>
                        <path d="M42.7416269,19.8446932 C42.7416269,19.6602983 42.5913134,19.5108864 42.405806,19.5108864 L40.2565522,19.5108864 C40.0710448,19.5108864 39.9207313,19.6602983 39.9207313,19.8446932 L39.9207313,21.9810568 C39.9207313,22.1654517 40.0710448,22.3148636 40.2565522,22.3148636 L42.405806,22.3148636 C42.5913134,22.3148636 42.7416269,22.1654517 42.7416269,21.9810568 L42.7416269,19.8446932 L42.7416269,19.8446932 Z" id="Shape"></path>
                        <path d="M56.9357015,19.8446932 C56.9357015,19.6602983 56.7853881,19.5108864 56.5998806,19.5108864 L45.8087463,19.5108864 C45.6232388,19.5108864 45.4729254,19.6602983 45.4729254,19.8446932 L45.4729254,21.9810568 C45.4729254,22.1654517 45.6232388,22.3148636 45.8087463,22.3148636 L56.5998806,22.3148636 C56.7853881,22.3148636 56.9357015,22.1654517 56.9357015,21.9810568 L56.9357015,19.8446932 L56.9357015,19.8446932 Z" id="Shape"></path>
                        <path d="M42.7416269,26.5208295 C42.7416269,26.3364347 42.5913134,26.1870227 42.405806,26.1870227 L40.2565522,26.1870227 C40.0710448,26.1870227 39.9207313,26.3364347 39.9207313,26.5208295 L39.9207313,28.6571932 C39.9207313,28.8415881 40.0710448,28.991 40.2565522,28.991 L42.405806,28.991 C42.5913134,28.991 42.7416269,28.8415881 42.7416269,28.6571932 L42.7416269,26.5208295 L42.7416269,26.5208295 Z" id="Shape"></path>
                        <path d="M56.9357015,26.5208295 C56.9357015,26.3364347 56.7853881,26.1870227 56.5998806,26.1870227 L45.8087463,26.1870227 C45.6232388,26.1870227 45.4729254,26.3364347 45.4729254,26.5208295 L45.4729254,28.6571932 C45.4729254,28.8415881 45.6232388,28.991 45.8087463,28.991 L56.5998806,28.991 C56.7853881,28.991 56.9357015,28.8415881 56.9357015,28.6571932 L56.9357015,26.5208295 L56.9357015,26.5208295 Z" id="Shape"></path>
                        <path d="M42.405806,32.8631591 L40.2565522,32.8631591 C40.0710448,32.8631591 39.9207313,33.012571 39.9207313,33.1969659 L39.9207313,35.3333295 C39.9207313,35.5177244 40.0710448,35.6671364 40.2565522,35.6671364 L42.405806,35.6671364 C42.5913134,35.6671364 42.7416269,35.5177244 42.7416269,35.3333295 L42.7416269,33.1969659 C42.7416269,33.012571 42.5913134,32.8631591 42.405806,32.8631591 L42.405806,32.8631591 Z" id="Shape"></path>
                        <path d="M56.5998806,32.8631591 L45.8087463,32.8631591 C45.6232388,32.8631591 45.4729254,33.012571 45.4729254,33.1969659 L45.4729254,35.3333295 C45.4729254,35.5177244 45.6232388,35.6671364 45.8087463,35.6671364 L56.5998806,35.6671364 C56.8207164,35.6671364 56.9357015,35.4583068 56.9357015,35.3333295 L56.9357015,33.1969659 C56.9357015,33.012571 56.7852537,32.8631591 56.5998806,32.8631591 L56.5998806,32.8631591 Z" id="Shape"></path>
                        <path d="M61.6100597,35.4668523 C57.586791,35.4668523 54.3251642,38.7089176 54.3251642,42.7080568 C54.3251642,46.7073295 57.586791,49.9492614 61.6100597,49.9492614 C65.633597,49.9492614 68.8949552,46.7073295 68.8949552,42.7080568 C68.8950896,38.7090511 65.633597,35.4668523 61.6100597,35.4668523 L61.6100597,35.4668523 Z M65.0091045,41.7480284 L61.6525075,45.0844943 C61.4558507,45.2799716 61.1979403,45.3778437 60.9401642,45.3778437 C60.6823881,45.3778437 60.4244776,45.2801051 60.2278209,45.0846278 L58.2112836,43.0803182 C57.8178358,42.6892301 57.8178358,42.0551307 58.2111493,41.6640426 C58.6047313,41.2729545 59.2423881,41.2729545 59.6359701,41.6640426 L60.9400299,42.9602812 L63.5842836,40.3318864 C63.9777313,39.9407983 64.6156567,39.9407983 65.0089701,40.3318864 C65.4025522,40.7228409 65.4025522,41.3569403 65.0091045,41.7480284 L65.0091045,41.7480284 Z" id="Shape"></path>
                        <polygon id="Page-1-Copy-4" transform="translate(11.429276, 27.355958) scale(-1, 1) rotate(-360.000000) translate(-11.429276, -27.355958) " points="0.929276272 0.172504552 16.627772 27.360863 0.933200406 54.539411 6.23274259 54.539411 21.9292763 27.3353561 6.23078052 0.172504552"></polygon>
                    </g>
                </g>
            </g>
        </g>
    </g>
</svg>