<svg xmlns="http://www.w3.org/2000/svg" viewBox="0 0 50 50" enable-background="new 0 0 50 50">
    <path style="text-indent:0;text-align:start;line-height:normal;text-transform:none;block-progression:tb;-inkscape-font-specification:Bitstream Vera Sans" d="M 16 6 C 15.477778 6 14.939531 6.1854695 14.5625 6.5625 C 14.185469 6.9395305 14 7.4777778 14 8 L 14 11 L 3 11 C 2.4777778 11 1.9395305 11.185469 1.5625 11.5625 C 1.1854695 11.939531 1 12.477778 1 13 L 1 41 C 1 41.522222 1.1854695 42.060469 1.5625 42.4375 C 1.9395305 42.814531 2.4777778 43 3 43 L 47 43 C 47.522222 43 48.060469 42.814531 48.4375 42.4375 C 48.814531 42.060469 49 41.522222 49 41 L 49 13 C 49 12.477778 48.814531 11.939531 48.4375 11.5625 C 48.060469 11.185469 47.522222 11 47 11 L 36 11 L 36 8 C 36 7.4777778 35.814531 6.9395305 35.4375 6.5625 C 35.060469 6.1854695 34.522222 6 34 6 L 16 6 z M 16 8 L 34 8 L 34 11 C 34 11.522222 34.185469 12.060469 34.5625 12.4375 C 34.939531 12.814531 35.477778 13 36 13 L 47 13 L 47 41 L 3 41 L 3 13 L 14 13 C 14.522222 13 15.060469 12.814531 15.4375 12.4375 C 15.814531 12.060469 16 11.522222 16 11 L 16 8 z M 25 12 C 17.262963 12 11 18.262963 11 26 C 11 33.737037 17.262963 40 25 40 C 32.737037 40 39 33.737037 39 26 C 39 18.262963 32.737037 12 25 12 z M 25 14 C 31.662963 14 37 19.337037 37 26 C 37 32.662963 31.662963 38 25 38 C 18.337037 38 13 32.662963 13 26 C 13 19.337037 18.337037 14 25 14 z M 25 15 C 18.954545 15 14 19.954545 14 26 C 14 32.045455 18.954545 37 25 37 C 31.045455 37 36 32.045455 36 26 C 36 19.954545 31.045455 15 25 15 z M 42 15 C 40.35499 15 39 16.35499 39 18 C 39 19.64501 40.35499 21 42 21 C 43.64501 21 45 19.64501 45 18 C 45 16.35499 43.64501 15 42 15 z M 25 17 C 29.954545 17 34 21.045455 34 26 C 34 30.954545 29.954545 35 25 35 C 20.045455 35 16 30.954545 16 26 C 16 21.045455 20.045455 17 25 17 z M 42 17 C 42.564128 17 43 17.435872 43 18 C 43 18.564128 42.564128 19 42 19 C 41.435872 19 41 18.564128 41 18 C 41 17.435872 41.435872 17 42 17 z" color="#000" overflow="visible" enable-background="accumulate" font-family="Bitstream Vera Sans" fill="#eaeaea"></path>
</svg>