<?xml version="1.0" encoding="UTF-8"?>
<svg width="27px" height="27px" viewBox="0 0 27 27" version="1.1" xmlns="http://www.w3.org/2000/svg" xmlns:xlink="http://www.w3.org/1999/xlink">
    <!-- Generator: Sketch 41.2 (35397) - http://www.bohemiancoding.com/sketch -->
    <title>Group 13</title>
    <desc>Created with Sketch.</desc>
    <defs>
        <rect id="path-1" x="0" y="0" width="27" height="27" rx="5"></rect>
        <mask id="mask-2" maskContentUnits="userSpaceOnUse" maskUnits="objectBoundingBox" x="0" y="0" width="27" height="27" fill="white">
            <use xlink:href="#path-1"></use>
        </mask>
    </defs>
    <g id="02-Главная" stroke="none" stroke-width="1" fill="none" fill-rule="evenodd">
        <g id="Group-13">
            <use id="Rectangle-9" stroke="#FFFFFF" mask="url(#mask-2)" stroke-width="4" xlink:href="#path-1"></use>
            <path d="M13.476056,6.08695653 C11.3503322,6.08695653 9.62713715,7.81020668 9.62713715,9.93587535 C9.62713715,12.0615991 11.3503322,13.7849594 13.476056,13.7849594 C15.6017797,13.7849594 17.3249748,12.0615991 17.3249748,9.93587535 C17.3249748,7.81020668 15.6017797,6.08695653 13.476056,6.08695653 L13.476056,6.08695653 Z M13.476056,11.5270423 C12.5973559,11.5270423 11.8849991,10.8146305 11.8849991,9.93593044 C11.8849991,9.05723039 12.5973559,8.3448736 13.476056,8.3448736 C14.354756,8.3448736 15.0671128,9.05723039 15.0671128,9.93593044 C15.0671128,10.8146305 14.354756,11.5270423 13.476056,11.5270423 Z" id="path9" fill="#FFFFFF"></path>
            <path d="M14.8348932,16.8475483 C16.3757716,16.5336442 17.299142,15.8039371 17.3479985,15.7647748 C17.7988879,15.403171 17.8713188,14.7445177 17.509715,14.2935732 C17.1481662,13.8426838 16.4895681,13.7702529 16.0385685,14.1318017 C16.0290396,14.1395129 15.0441993,14.8949978 13.4237845,14.8960994 C11.8034248,14.8949978 10.7977641,14.1395129 10.7882352,14.1318017 C10.3372356,13.7702529 9.67863746,13.8426838 9.31708872,14.2935732 C8.95548489,14.7445177 9.02791582,15.403171 9.47880522,15.7647748 C9.52832264,15.8044879 10.4898088,16.5531978 12.0738704,16.8597211 L9.86618674,19.1669353 C9.46498,19.5830137 9.47704264,20.2455226 9.89312113,20.6467294 C10.0962031,20.8425407 10.3579459,20.9398681 10.6194684,20.9398681 C10.8936594,20.9398681 11.1675749,20.8327364 11.3729152,20.6197399 L13.4238396,18.4349698 L15.6819219,20.6338956 C16.0910603,21.042373 16.7535691,21.041712 17.1619364,20.6327389 C17.5703036,20.2237107 17.5698079,19.5610917 17.1607797,19.1527245 L14.8348932,16.8475483 L14.8348932,16.8475483 Z" id="path13" fill="#FFFFFF"></path>
            <path id="path15" fill="#FFFFFF"></path>
        </g>
    </g>
</svg>